<svg preserveAspectRatio="none" width="100%" height="100%" overflow="visible" style="display: block;" viewBox="0 0 81.0001 93.4947" fill="none" xmlns="http://www.w3.org/2000/svg">
<g id="Capa_27_Imagen">
<path id="Vector" d="M70.1905 82.6164H17.4294C13.5573 82.6164 10.4199 79.4798 10.4199 75.6087V10.0677L61.3899 7.98198C66.1897 7.7836 70.1905 11.6226 70.1905 16.4266V82.6164Z" fill="var(--fill-0, white)"/>
<path id="Vector_2" d="M24.2727 67.7485L20.8564 67.8128L13.2463 67.9093C12.8924 67.9093 12.2113 67.4965 12.0289 67.2981C11.8144 67.0568 12.2274 66.333 12.2328 65.9952L12.3132 62.0329L12.3615 50.1568L12.5223 38.9081L12.635 36.2969L12.7637 13.9817L19.875 13.7565L42.9252 13.1292L53.0827 12.8879L63.6102 12.6037C64.2859 12.5877 64.9993 12.593 65.2889 12.9147C65.7018 13.3705 65.986 14.1693 66.0128 14.6787L66.1363 17.1772L66.4204 37.5998L66.6082 58.5157L66.7959 66.8906L57.9844 67.1426L52.5464 67.2498L37.3422 67.4911L33.7598 67.5394L32.0061 67.6198L24.2727 67.7592V67.7485Z" fill="var(--fill-0, black)"/>
<path id="Vector_3" d="M10.5272 32.8655L10.538 37.6374L10.5648 55.288L10.538 58.2101L10.5648 60.9606L10.479 70.5902C10.4683 72.0432 10.5272 73.1799 10.3824 74.7079C9.78711 74.1342 9.36885 73.6999 8.96126 73.1906L9.06313 44.5646L9.25089 11.8638C9.26161 10.3572 9.41173 9.31169 10.0124 7.78898C12.7582 7.60668 15.295 7.6442 17.998 7.52625L22.0577 7.34932L27.6245 7.22063L33.1698 7.05979L41.0856 6.82924L43.8154 6.8185L46.5988 6.58796C48.1433 6.45928 49.543 6.62013 51.0018 6.57724L60.5587 6.30379C64.2323 6.19656 63.1812 6.47 65.6535 9.06504L60.5694 9.16692L53.7745 9.37066L51.1091 9.3814L45.7515 9.56369L42.2869 9.57977L38.8976 9.64948L28.2036 9.84249L22.6691 9.94436L18.4323 9.96045L10.42 10.0784L10.4951 14.4482L10.479 18.2174L10.5165 22.689L10.5326 25.906L10.5218 32.8762L10.5272 32.8655Z" fill="var(--fill-0, black)"/>
<path id="Vector_4" d="M22.5028 82.3376L29.0027 82.1445L32.3064 82.0588L41.2733 81.8443L44.5769 81.7692L58.7084 81.5226C62.7199 81.4529 65.4282 81.5226 69.4129 81.3028L69.3218 69.8395L69.2574 65.3518L69.2199 62.9176L69.0107 37.38L68.764 18.019L68.6729 13.4562C69.2736 14.0407 70.5713 15.2417 70.5767 16.2014L70.7322 41.042L70.7859 45.0204L70.9843 75.346L71.0648 79.6353C71.0809 80.4127 70.9736 81.292 71.1666 81.9622C71.3865 82.7343 71.2899 83.3402 70.8502 83.7798C70.2549 84.375 69.4559 83.2651 68.9357 83.2812L56.2951 83.6405L48.2559 83.871L34.1834 84.1605L24.2297 84.3964C22.3741 84.4393 20.186 84.3321 18.3411 84.2302C17.7405 84.1981 16.9735 83.0614 16.8555 82.611L22.5082 82.3322L22.5028 82.3376Z" fill="var(--fill-0, black)"/>
<path id="Vector_5" d="M61.5937 2.34687C62.8808 6.83994 66.9245 20.3621 70.3515 24.9141C70.6679 25.3323 71.3114 25.268 71.5313 24.7908L71.8156 24.1796C71.9443 23.9008 72.2393 23.7399 72.5396 23.7882L74.5454 24.0777C74.9637 24.1367 75.3337 23.815 75.3337 23.3968V22.4102C75.3337 21.917 75.8379 21.5845 76.2937 21.7776L77.2054 22.1636C77.6613 22.3566 78.1654 22.0242 78.1654 21.5309V20.657C78.1654 20.1583 78.6803 19.8259 79.1361 20.0243L80.0264 20.4157C80.6538 20.6945 81.2599 19.9921 80.8845 19.4131C78.3478 15.4883 72.8721 6.56114 71.8478 1.06007C71.7352 0.464927 70.9736 0.282626 70.6143 0.770537L70.5821 0.81344C70.2764 1.23165 69.6382 1.17266 69.4076 0.7062C69.1448 0.170033 68.3726 0.202212 68.1474 0.749102L68.1313 0.797355C67.906 1.34961 67.1337 1.37641 66.8709 0.840241L66.6511 0.389864C66.4151 -0.098048 65.7394 -0.135582 65.4498 0.320159C65.1441 0.802709 64.8276 1.36568 64.7203 1.77853C64.5863 2.27717 63.4761 1.92331 62.5322 1.52118C61.9959 1.29063 61.4381 1.7839 61.5937 2.34152V2.34687Z" fill="var(--fill-0, #9E9E9E)"/>
<path id="Vector_6" d="M25.1896 87.533C22.0523 84.0694 12.4472 73.7267 7.35766 71.1585C6.89108 70.9226 6.33863 71.2657 6.34935 71.7912L6.36546 72.4667C6.37082 72.7724 6.17781 73.0458 5.88821 73.1423L3.96284 73.7643C3.56062 73.8929 3.37291 74.3487 3.55525 74.724L3.98968 75.6087C4.20957 76.0537 3.90384 76.5738 3.41044 76.6006L2.41836 76.6596C1.92497 76.6864 1.61923 77.2118 1.83912 77.6515L2.22524 78.4343C2.44512 78.8793 2.13414 79.4101 1.63539 79.4262L0.664652 79.4637C-0.0218123 79.4905 -0.252479 80.3913 0.337451 80.7398C4.34897 83.1418 13.2033 88.734 16.5552 93.211C16.9198 93.6989 17.6814 93.5274 17.7887 92.9268L17.7994 92.8786C17.8906 92.3692 18.4913 92.1387 18.8988 92.455C19.3708 92.8196 20.0519 92.455 20.009 91.8599V91.8116C19.9608 91.2165 20.6418 90.8519 21.1137 91.2165L21.5052 91.5221C21.9342 91.8545 22.5564 91.5864 22.6154 91.0503C22.6744 90.4819 22.7119 89.8385 22.6261 89.4203C22.5242 88.911 23.6827 88.7394 24.707 88.6858C25.2862 88.6536 25.5758 87.9673 25.1843 87.533H25.1896Z" fill="var(--fill-0, #9E9E9E)"/>
<g id="Image">
<path id="Vector_7" d="M64.034 14.475L64.0447 24.9838C64.0447 25.2036 64.1198 25.4396 64.2968 25.3162C64.2968 25.6111 64.3289 25.9221 64.286 26.2116C64.1359 27.3537 64.2968 28.5118 64.3022 29.6646L64.3344 38.4255C64.3344 38.6293 64.3718 38.8705 64.5435 38.7579C64.522 39.6748 64.5006 40.5219 64.4684 41.4548C64.152 42.5325 61.9639 39.2727 61.5295 38.7848C61.9317 37.3746 62.4144 35.9806 61.6529 34.8868C61.8459 34.5544 61.6153 34.0397 61.7279 33.7233C62.8273 32.6778 60.7465 28.0078 60.3228 27.8577L57.8612 26.9623C57.7432 26.9194 57.6896 26.7317 57.5877 26.662C57.8773 26.2813 58.3707 26.2384 58.7086 25.8953C59.0464 25.5522 59.2341 25.2626 59.336 24.764C59.4379 24.2653 59.218 23.5094 58.3867 23.6166C57.4858 23.7399 56.8797 24.8927 56.4882 25.6004C56.2791 25.6755 55.8984 25.8685 56.07 26.1259C55.3031 25.9221 54.5523 25.6058 53.7585 25.579C53.8229 25.4985 53.796 25.3484 53.8497 25.2626C53.8604 25.0911 53.8926 24.8337 54.0267 24.823C54.3109 24.7962 54.6648 24.9248 55.051 24.9731C55.7321 24.9677 55.7858 24.3297 54.9867 24.394C54.5362 24.0455 54.2198 23.4933 53.8926 23.1555L51.4524 20.6355C49.9454 19.0806 48.6315 17.0539 45.3226 17.8153C44.4645 18.0137 43.7941 18.0834 42.995 18.5445C42.0618 19.086 40.705 19.0538 40.0561 20.0457C39.9059 20.2763 39.6484 20.3782 39.4822 20.5712C38.4793 20.7427 37.3692 20.5712 36.5379 21.2199C35.2293 21.3057 33.8349 21.6328 32.7892 22.4317C32.3709 22.6622 32.1403 22.3566 31.7971 22.1797C31.2715 21.9062 30.6869 22.496 30.3597 22.8981C30.837 23.2091 31.1213 22.8606 31.5932 23.0483C30.6493 23.6327 30.0915 24.5924 29.8127 25.6004C28.193 26.855 28.1073 28.9139 27.7373 30.8066C26.4501 37.3961 28.4291 37.2728 26.3804 39.9911C25.5491 41.0956 24.8841 39.0207 23.4361 42.5647C22.9052 42.7202 22.6853 42.1519 22.2617 41.9642C22.0042 41.8516 21.8755 41.4227 21.5698 41.3637C21.2212 41.294 20.7492 41.2511 20.4435 41.4656C19.6552 42.0125 21.3338 44.5378 21.0978 45.4493C20.6848 44.9185 18.3252 42.9186 18.4861 44.3609C18.5022 44.5646 18.5934 44.9399 18.5237 45.1383C17.864 47.031 20.9852 48.2159 20.7278 49.5027C19.5426 49.3365 18.2769 48.0122 17.5207 48.7253C17.3813 48.8111 17.1507 48.7789 17.1561 48.9558C17.2204 50.441 19.3495 51.1166 19.9448 51.2077L20.2344 51.2506C20.1754 51.701 20.4703 52.0709 20.583 52.4784C20.9637 53.8832 22.7765 56.8857 24.5731 56.7678C24.9539 57.1967 24.7662 57.7972 25.1845 58.0385C25.222 58.387 25.2595 58.7355 25.2541 59.084C23.8758 58.7891 22.2938 59.9633 22.2456 61.2555C22.208 62.3385 22.873 63.0034 23.4093 63.872C23.9456 64.7406 24.2084 65.8022 24.8895 66.5957C24.0421 66.7405 23.1679 66.8531 22.3367 66.6064C22.1597 66.5528 21.8218 66.4348 21.6448 66.4885L15.0644 66.3759C14.748 65.4322 14.8392 64.4564 14.3029 63.6521C12.3401 60.7193 16.2819 61.1536 14.0992 55.0467C13.0588 52.1299 14.4102 48.4733 13.7505 48.0711C13.0158 47.6261 13.6755 42.3931 13.6862 41.6479L13.8578 32.7207C13.8846 31.391 13.8417 30.2436 14.0455 29.0748C14.6462 25.5575 14.3673 21.799 14.142 18.2603C14.1474 17.4989 14.1152 16.7215 14.3029 15.9816L14.8983 15.9548L23.0983 15.9333C23.3075 15.9065 23.5541 15.81 23.4254 15.6492C24.8519 15.6545 26.2087 15.8851 27.8015 15.6331C29.0082 15.44 30.2526 15.8743 31.2769 15.3811C31.6738 15.8583 32.2368 15.4669 32.8214 15.4025C35.2133 15.1505 37.5247 15.5634 39.8951 15.1827C42.6088 14.743 46.3147 15.4454 48.2561 14.7484C48.6208 15.2846 49.1893 14.8342 49.7739 14.8181L55.9895 14.609C58.7193 14.5179 61.4115 14.5929 64.0447 14.4589L64.034 14.475ZM29.684 23.4933C29.2657 22.5443 27.3136 23.9169 27.571 24.8283C28.1877 25.0482 29.9789 24.2117 29.684 23.4933Z" fill="var(--fill-0, #6E7F94)"/>
<path id="Vector_8" d="M64.8973 58.3441C65.1869 59.9526 64.6398 61.6415 65.1547 63.2232C65.3692 63.8881 64.8812 64.9282 64.9134 65.6038C63.4975 65.636 62.0441 65.5234 60.5317 65.9416C56.4934 65.9362 52.5998 65.8558 48.599 66.0596C47.7517 66.1024 43.3808 66.2043 43.9171 66.5582L43.5632 66.4027C44.0942 66.0059 43.96 65.2875 44.1692 64.7781C44.6411 63.6468 45.0219 62.4672 45.2311 61.2501C45.4241 60.1242 46.3895 59.2502 46.4592 58.0975C46.5128 57.1217 47.1135 56.4246 47.9877 55.8831C48.6634 55.4649 49.2909 54.9448 50.0953 55.0467C50.8193 55.9528 50.5512 57.4219 51.4468 57.7651C51.656 57.9902 51.8222 58.4406 52.0689 58.6497C52.2888 59.1537 52.3961 60.0384 53.2274 60.1242C53.7851 60.1832 53.8709 59.4272 54.1176 59.1752C54.9381 59.3843 55.4209 59.0733 56.0752 58.6068C56.2629 58.6765 56.4881 58.8106 56.6972 58.7033C56.8152 58.6444 56.8742 58.4621 56.9278 58.328C57.5284 58.5318 58.1935 58.1511 58.7567 58.2851L59.958 58.5747C60.2958 58.6551 60.403 57.9795 60.5156 57.749C61.1431 57.7651 61.6044 57.3576 61.8028 56.6659C61.9315 56.564 62.1246 56.8911 62.2211 56.9018C62.3445 57.1431 62.1459 57.7007 62.3873 57.9152C62.827 58.3012 63.2722 57.8991 63.5297 57.4755C63.7174 57.1699 63.6262 56.741 63.1704 56.6391C63.2347 55.9743 63.6531 55.3845 63.5726 54.7143C63.9319 54.6982 64.0606 54.3765 64.6023 54.2478C64.4896 55.8134 64.6613 57.0627 64.8919 58.3548L64.8973 58.3441Z" fill="var(--fill-0, #34577C)"/>
<path id="Vector_9" d="M30.3757 57.7275L30.9979 57.765C31.679 58.8481 32.5477 60.0277 33.0518 61.2072C33.6203 62.5316 33.8295 64.0704 34.7948 65.2714C34.9986 65.5234 35.106 65.8504 35.4116 66.1668L30.9979 66.2472C30.7888 66.2472 30.5474 66.3383 30.6707 66.5046C28.9277 66.5046 27.1204 67.0193 25.474 66.4831C24.8304 65.443 24.4228 64.3009 23.6827 63.3251C23.2376 62.7353 22.8515 61.99 22.8193 61.2877C27.8606 59.8239 25.5383 60.9767 30.3757 57.7275Z" fill="var(--fill-0, #34577C)"/>
<path id="Vector_10" d="M21.6392 66.5045C19.2044 67.2016 16.5712 66.5957 14.0345 66.7994C13.6752 66.6172 12.8493 66.5314 12.9566 65.9201C13.4446 63.1106 12.9566 60.1832 13.1765 57.1645C13.4232 53.6848 13.3212 50.945 13.7449 48.0926C14.4045 48.4947 13.0531 52.1514 14.0936 55.0681C16.2763 61.1751 12.3291 60.7408 14.2973 63.6736C14.8336 64.4778 14.7424 65.4483 15.0588 66.3973L21.6392 66.5099V66.5045Z" fill="var(--fill-0, #697B8F)"/>
<path id="Vector_11" d="M41.2734 66.215C41.3807 66.3759 41.1233 66.4188 40.9249 66.4992L30.6707 66.5099C30.5474 66.3383 30.7888 66.2579 30.9979 66.2526L35.4117 66.1721C35.106 65.8558 34.9986 65.5287 34.7949 65.2767L35.1113 64.9979C35.24 65.3196 35.6316 65.9845 35.948 66.1507L41.2734 66.215Z" fill="var(--fill-0, #213042)"/>
<path id="Vector_12" d="M25.4739 66.4831C25.3077 66.4295 25.0502 66.585 24.884 66.6118C24.2029 65.8183 23.9401 64.7513 23.4038 63.888C23.3662 63.6575 23.452 63.4109 23.6826 63.3251C24.4227 64.3009 24.825 65.4429 25.4739 66.4831Z" fill="var(--fill-0, #242B32)"/>
<path id="Vector_13" d="M58.7192 25.8953C58.3813 26.2384 57.8879 26.2813 57.5983 26.662C56.9815 26.8497 56.5578 26.2545 56.0859 26.1312C55.9143 25.8685 56.2897 25.6808 56.5042 25.6058C57.491 25.2465 57.0566 24.4959 58.5583 24.4101C58.7406 24.9195 58.6977 25.4235 58.7246 25.9007L58.7192 25.8953Z" fill="var(--fill-0, #6F88A3)"/>
<path id="Vector_14" d="M14.0347 29.0909L14.1312 18.2764C14.3564 21.8151 14.6353 25.5736 14.0347 29.0909Z" fill="var(--fill-0, #627386)"/>
<path id="Vector_15" d="M58.7191 25.8953C58.6923 25.4181 58.7406 24.9195 58.5528 24.4048C57.0512 24.4906 57.4802 25.2412 56.4988 25.6004C56.8903 24.8927 57.4963 23.7399 58.3973 23.6166C59.2232 23.504 59.4431 24.2815 59.3466 24.764C59.25 25.2466 59.057 25.5575 58.7191 25.8953Z" fill="var(--fill-0, #6F859E)"/>
<path id="Vector_16" d="M29.6836 23.4933C29.9786 24.2118 28.1874 25.0482 27.5707 24.8284C27.3132 23.9169 29.2653 22.5443 29.6836 23.4933Z" fill="var(--fill-0, #282F36)"/>
<path id="Vector_17" d="M22.8247 61.2876C22.8515 61.99 23.2429 62.7407 23.688 63.3251C23.4521 63.4109 23.3716 63.6521 23.4091 63.888C22.8728 63.0141 22.2079 62.3493 22.2454 61.2716C22.4278 61.2394 22.6477 61.3413 22.83 61.2876H22.8247Z" fill="var(--fill-0, #262E37)"/>
<path id="Vector_18" d="M35.1114 62.3171C35.2562 62.5209 35.2616 62.7943 35.3795 62.9927C35.5726 63.3144 35.8407 63.5396 36.2966 63.9631C36.5487 63.6951 36.5111 63.4323 36.6612 63.0731C37.3531 63.1696 37.9967 63.2769 38.6457 63.2608C39.5949 63.9256 40.7639 64.0865 41.8848 64.3599C42.1744 64.4296 42.4533 64.5208 42.7215 64.6119C43.2899 64.8103 43.5474 65.0194 43.2524 65.6628C43.054 66.0917 42.5391 66.2258 42.0833 66.2204C41.8688 66.1239 41.5202 66.215 41.2788 66.2097L35.9534 66.1453C35.637 65.9791 35.2401 65.3143 35.1168 64.9926C34.6341 63.754 34.0012 62.4726 33.9905 61.7595C34.3498 61.9793 34.6984 62.2313 35.1168 62.3117L35.1114 62.3171Z" fill="var(--fill-0, #6A7C90)"/>
<path id="Vector_19" d="M61.733 33.7287C61.3897 33.6536 60.6551 34.0182 60.3387 33.6912C59.8721 33.214 60.0383 31.257 59.2714 31.4393C58.9014 31.5304 58.8531 31.7609 58.8155 32.4901C59.0622 32.6778 59.0944 32.1309 59.4859 32.0612C59.9954 34.1952 60.5907 33.7287 59.797 33.9646C59.6522 34.0075 59.4966 33.7072 59.1748 33.4713C58.9388 33.9968 59.0301 34.8225 59.384 35.3801C60.3547 36.9028 58.2578 37.9805 59.4162 40.6131C59.8882 41.6854 59.915 42.6934 60.2314 43.7014C60.6176 44.9292 61.1002 46.3608 62.3229 47.1221C62.6769 47.342 63.7119 47.2079 63.6529 47.6208C63.0469 49.2132 63.0416 50.7091 63.2722 52.1889C63.7495 51.6045 63.0791 50.9986 63.83 50.5643C64.1678 51.7064 64.2643 52.9074 64.0552 53.985C63.8567 54.0816 63.535 54.4569 63.5672 54.6928C63.6476 55.363 63.2293 55.9528 63.165 56.6176C63.0899 56.9876 62.5214 56.8321 62.2157 56.8857C62.1138 56.8803 61.9207 56.5533 61.7974 56.6498C61.5989 57.3361 61.1376 57.7489 60.5102 57.7329C60.2849 57.3629 60.4727 56.993 60.4029 56.5587L59.8346 57.7275C59.7112 57.9741 59.3571 58.0009 59.0407 57.7543C58.0968 56.2209 57.9843 54.5105 58.1612 52.4731C56.8527 54.2585 57.4534 56.4193 58.7566 58.0331V58.2797C58.1881 58.1457 57.523 58.5264 56.9224 58.3226C55.9624 57.8884 56.0858 56.6605 55.3564 55.5775C54.6217 56.6659 55.6353 57.6417 56.0697 58.6068C55.4154 59.0733 54.9327 59.3843 54.1122 59.1752L52.0634 58.6497C51.8168 58.4406 51.6505 57.9902 51.4414 57.765L52.0206 55.6633C51.5326 55.8348 51.7149 56.3817 51.2644 56.6444C50.7978 55.8348 51.3127 55.5024 51.8436 55.1646C50.3742 54.1674 52.0688 53.7009 51.1625 52.768C51.4414 51.7332 52.1493 50.9396 52.6481 50.0067C52.8143 50.0067 52.9859 49.9852 53.1468 50.0335C53.6831 50.1944 55.2062 46.9613 55.4744 46.602C55.7103 47.4224 55.5226 48.2534 55.5548 49.2507C55.8605 49.1971 56.0482 48.9665 56.1394 48.6824C56.252 46.8111 55.8873 44.9882 54.9273 43.4172C54.6163 42.9079 54.2141 42.4736 54.5842 41.9696C53.8602 40.9401 53.667 37.959 53.1844 37.9644C52.2512 35.6321 53.4311 35.7822 52.9484 34.0504C53.0503 33.986 53.1308 33.852 53.2058 33.7555C53.3077 33.7769 53.5706 33.986 53.6403 33.8681L55.1955 31.3642C55.1955 31.3642 58.2685 28.0668 57.3246 27.2679C57.5445 27.2518 57.7161 27.1124 57.8555 26.9569L60.3172 27.8523C60.7409 28.0078 62.8216 32.6724 61.7222 33.718L61.733 33.7287Z" fill="var(--fill-0, #412006)"/>
<path id="Vector_20" d="M51.1843 20.6891C51.7527 21.9706 52.112 23.4289 53.1471 24.3887C53.3884 24.6085 53.2758 25.4449 53.8658 25.268C53.8121 25.3591 53.839 25.5039 53.7746 25.5843C53.3992 26.0508 53.5333 26.6567 53.7854 27.1875C54.0213 26.8336 53.973 26.3725 54.2304 26.3296C54.4878 26.2867 54.6809 26.41 54.7828 26.5173C54.9008 26.6406 54.9974 26.9676 54.9813 27.1178C54.9009 27.1714 54.8471 27.3644 54.7506 27.3858C53.8979 27.5789 53.9301 28.6619 53.5547 29.3482C52.6483 28.3724 50.9215 26.4368 49.4413 27.8309C48.2829 28.9193 49.0606 31.0103 49.3716 30.2007C50.0635 31.0747 50.0687 32.8494 49.1141 33.4981C48.7494 32.6081 48.3955 30.5385 47.8378 31.9433C47.7412 30.9567 47.1941 30.308 46.8509 29.2678C46.202 29.7664 46.8081 30.2115 46.4059 30.6243C45.9983 29.879 45.8857 29.3536 45.344 29.1016C43.1452 28.0775 44.3733 27.418 42.094 27.6271C41.9438 27.5789 41.6703 27.6539 41.4825 27.5199C41.3538 27.4234 41.3003 27.2143 41.2896 27.0266C41.5738 27.2572 45.7462 20.7159 45.5907 21.1878C46.7437 20.8393 46.2932 18.5445 47.1244 18.4372C47.8753 18.3461 50.7445 19.6811 51.195 20.6838L51.1843 20.6891Z" fill="var(--fill-0, #412006)"/>
<path id="Vector_21" d="M27.4958 47.4975C27.6781 47.9264 27.9838 48.3768 28.0428 48.929C27.9409 49.1649 27.5815 49.4974 27.4045 49.5992C26.5089 49.9424 25.7313 51.0415 25.4739 52.1353C26.5626 51.7868 26.879 50.8056 27.4689 50.0871L28.7452 49.5349C29.0617 49.4009 29.6677 49.492 29.8178 48.9344C30.1074 47.8835 30.8852 47.1758 31.2767 46.2804C31.5556 46.2536 31.8612 46.1517 32.1669 46.2482L32.1884 47.787C30.7618 49.0523 31.9899 52.0924 30.1075 53.1004C29.9198 53.5347 29.6623 54.0387 29.5712 54.4944C28.8096 55.0306 30.4775 55.4006 30.1021 57.2128C29.4746 57.32 28.7346 57.7061 28.2734 58.2369C27.7049 58.891 27.1363 58.698 26.5947 58.8964C25.9189 58.9553 25.978 57.7114 25.4524 57.1914C25.6723 55.5185 23.0176 56.2102 21.5213 53.1487C21.3175 52.7358 20.9153 52.4731 20.5613 52.4838C20.454 52.0763 20.1591 51.7064 20.2128 51.256C20.8617 51.0898 20.8188 50.1622 21.3283 49.8351C22.063 49.3633 22.8674 48.8004 23.3769 48.0819C23.8542 48.0015 24.4817 47.8781 24.8678 47.5028C25.1306 47.7012 25.2808 47.669 25.3398 47.5189C25.4578 47.224 25.3398 46.7629 25.4578 46.6235C25.9083 46.1034 26.2836 45.519 26.6 44.9078C26.6805 45.7656 27.1471 46.7147 27.4796 47.4975H27.4958Z" fill="var(--fill-0, #A37755)"/>
<path id="Vector_22" d="M61.7331 33.7287C61.6151 34.045 61.8458 34.5598 61.6581 34.8922C61.0306 34.6187 61.1914 37.1173 60.7892 37.8626C60.387 37.3854 60.8215 36.7152 60.0814 36.0718C59.6148 38.64 60.0223 41.1814 60.5318 43.7068H60.2369C59.9205 42.6988 59.8937 41.6908 59.4218 40.6184C58.2634 37.9859 60.3603 36.9082 59.3896 35.3855C59.0356 34.8279 58.9444 34.0021 59.1803 33.4767C59.4967 33.7126 59.6577 34.0129 59.8025 33.97C60.5962 33.7287 60.0009 34.2005 59.4914 32.0666C59.0999 32.1363 59.0677 32.6778 58.821 32.4955C58.8586 31.7717 58.9069 31.5358 59.277 31.4446C60.0439 31.257 59.8722 33.2193 60.3442 33.6965C60.6606 34.0182 61.3899 33.6536 61.7385 33.7341L61.7331 33.7287Z" fill="var(--fill-0, #3D1E06)"/>
<path id="Vector_23" d="M51.4577 20.6409L51.1842 20.6891C50.7391 19.6865 47.8645 18.3514 47.1136 18.4426C46.2824 18.5445 46.7329 20.8446 45.5799 21.1931C45.7086 20.7964 46.3522 19.1289 45.7355 18.9144C45.4673 18.8233 44.872 18.8822 44.7969 19.2093C44.6146 19.9814 43.853 20.1154 43.558 20.539C43.188 19.9063 43.9173 19.7133 44.0782 18.8876C44.6145 18.6624 45.3278 18.4801 45.3171 17.8206C48.6315 17.0593 49.9454 19.086 51.447 20.6409H51.4577Z" fill="var(--fill-0, #41260F)"/>
<path id="Vector_24" d="M25.4688 57.1967C25.1416 57.3469 25.147 57.7383 25.1791 58.0546C24.7555 57.8133 24.9432 57.2075 24.5678 56.7839C22.7712 56.9018 20.9584 53.8993 20.5776 52.4945C20.9316 52.4838 21.3338 52.7466 21.5376 53.1594C23.0339 56.2209 25.6886 55.5239 25.4688 57.2021V57.1967Z" fill="var(--fill-0, #21252B)"/>
<path id="Vector_25" d="M27.7694 33.7662C27.8606 35.423 27.9034 37.0851 28.0911 38.7365C27.7479 39.1762 27.5173 40.2002 26.6646 40.2002C26.5574 40.1466 26.4608 40.0823 26.375 40.0019C28.429 37.2835 26.4447 37.4068 27.7319 30.8173C27.8552 31.7931 27.7158 32.7851 27.7694 33.7662Z" fill="var(--fill-0, #2A2E33)"/>
<path id="Vector_26" d="M20.7224 49.5134L21.0604 49.5617C21.1623 49.6475 21.2588 49.7386 21.3446 49.8459C20.8352 50.1729 20.878 51.1005 20.2291 51.2667L19.9395 51.2238C19.918 50.0657 17.7406 50.2587 17.5154 48.7414C18.2716 48.0283 19.5372 49.358 20.7224 49.5188V49.5134Z" fill="var(--fill-0, #A07E69)"/>
<path id="Vector_27" d="M32.789 22.4424C32.9445 22.5175 33.1591 22.7159 33.3468 22.6837C32.6335 23.681 31.2928 23.9758 30.7082 25.0535C30.5473 25.3484 30.0538 25.4235 29.8071 25.6112C30.086 24.5978 30.6438 23.6381 31.5877 23.059C31.1211 22.866 30.8315 23.2198 30.3542 22.9089C30.6813 22.5067 31.266 21.917 31.7915 22.1904C32.1348 22.3727 32.3653 22.673 32.7836 22.4424H32.789Z" fill="var(--fill-0, #252C33)"/>
<path id="Vector_28" d="M26.6643 40.2002C26.4337 40.6453 26.1442 41.0581 25.7687 41.3905C24.8034 41.3262 24.8355 42.4146 24.873 43.1545L23.6878 42.8007C23.7468 42.6827 23.5377 42.5433 23.4304 42.5755C24.8784 39.0368 25.5434 41.1064 26.3747 40.0019C26.4605 40.0823 26.5571 40.1466 26.6643 40.2002Z" fill="var(--fill-0, #2B2F35)"/>
<path id="Vector_29" d="M22.2614 41.9749C21.6017 42.2645 22.8834 43.5888 23.1194 44.2912C22.7493 44.4574 22.3847 44.704 22.2614 45.1061C22.2238 44.8702 21.7894 44.763 21.6553 44.6129L20.8831 42.2966C20.9045 42.0125 21.8216 41.8087 21.5695 41.3744C21.8752 41.4334 22.004 41.8623 22.2614 41.9749Z" fill="var(--fill-0, #99755A)"/>
<path id="Vector_30" d="M21.0228 46.8755L20.5079 47.2347C19.8376 46.5431 19.1511 45.8729 18.5237 45.1491C18.5934 44.9507 18.5022 44.5754 18.4861 44.3716C19.194 44.007 20.819 46.3394 21.0228 46.8755Z" fill="var(--fill-0, #9B7254)"/>
<path id="Vector_31" d="M21.5697 41.3744C21.8218 41.8087 20.9047 42.0125 20.8832 42.2966L21.6555 44.6129C21.4892 44.8005 21.323 45.2134 21.3873 45.46H21.0923C21.3337 44.5485 19.6551 42.0232 20.4381 41.4763C20.7437 41.2618 21.2157 41.3101 21.5643 41.3744H21.5697Z" fill="var(--fill-0, #2B2E33)"/>
<path id="Vector_32" d="M53.8603 25.268C53.2704 25.4449 53.3829 24.6139 53.1416 24.3887C53.4956 24.0295 53.3616 23.4075 53.8979 23.1609C54.225 23.4986 54.5414 24.0509 54.9919 24.3994C55.7964 24.3297 55.7373 24.9677 55.0562 24.9785C54.6701 24.9249 54.3162 24.7962 54.0319 24.8283C53.8979 24.8444 53.8656 25.1018 53.8549 25.268H53.8603Z" fill="var(--fill-0, #3A444F)"/>
<path id="Vector_33" d="M17.5205 48.736C17.7457 50.2534 19.9231 50.0604 19.9446 51.2185C19.3493 51.1273 17.2202 50.4464 17.1559 48.9666C17.1505 48.795 17.3811 48.8218 17.5205 48.736Z" fill="var(--fill-0, #332F2E)"/>
<path id="Vector_34" d="M39.4875 20.5765C38.9351 21.2146 38.2272 21.6918 37.3852 21.8419C37.0206 21.7776 36.6129 21.6221 36.5432 21.2253C37.3745 20.5766 38.4846 20.7481 39.4875 20.5765Z" fill="var(--fill-0, #292F37)"/>
<path id="Vector_35" d="M45.3224 17.8206C45.3331 18.4801 44.6198 18.6624 44.0835 18.8876C43.7242 19.0377 43.3541 19.2576 42.9841 19.3755C42.8286 19.3863 42.657 19.338 42.5015 19.3648L42.9948 18.5498C43.7885 18.0887 44.459 18.019 45.3224 17.8206Z" fill="var(--fill-0, #281B11)"/>
<path id="Vector_36" d="M42.9948 18.5498L42.5015 19.3648C41.8579 19.4827 41.3162 19.7079 40.8443 20.1315C40.5815 20.1315 40.3187 20.1047 40.0559 20.0511C40.7048 19.0592 42.0617 19.0913 42.9948 18.5498Z" fill="var(--fill-0, #33373E)"/>
<path id="Vector_37" d="M52.6052 48.0711C52.6213 48.6609 52.5141 49.24 52.3854 49.819C51.2538 50.8109 50.5084 52.2693 50.0472 53.7009C49.1462 54.1352 48.4114 54.9823 47.9878 55.8831C47.1136 56.4246 46.5182 57.1216 46.4593 58.0975C45.4403 57.9688 44.7484 60.6496 44.9737 61.2501C44.4159 61.6362 44.3784 62.36 44.1585 62.9605C43.1717 63.0999 42.4638 62.2367 41.9061 61.2447C41.6755 62.3921 42.6892 63.443 43.7403 63.7808C43.7296 63.8827 43.7992 63.9899 43.8046 64.0918C43.7295 64.124 43.6115 64.0811 43.5472 64.124C41.5736 64.0757 41.0963 61.8935 40.6297 60.1563C40.2168 61.3681 40.8013 62.2956 40.9729 63.2768C39.9539 63.2125 38.994 62.939 38.0072 62.687C37.6049 62.5852 37.2296 62.5047 36.7362 62.2688C36.3018 62.0597 35.9586 62.8586 35.6475 63.0248C35.5241 62.5905 35.9586 62.2474 36.098 61.8238C36.2911 61.2287 35.3096 61.0624 35.2184 60.671C35.0897 60.1242 35.6583 59.6309 35.2721 58.9232C34.3819 59.9258 34.3389 61.2501 35.1058 62.3278C34.6875 62.2474 34.3335 61.9954 33.9795 61.7755C33.9795 61.4807 33.7436 61.2126 33.6203 60.9606C33.3092 60.3172 33.1215 59.5558 32.714 58.9607C32.6603 58.5478 32.5531 58.1457 32.4512 57.7436C32.5584 56.9501 33.3039 56.4782 33.8884 56.001C36.2964 54.7893 35.3954 53.6473 37.8838 53.1862C38.6025 52.4194 39.3051 51.6474 39.6966 50.7627C40.2543 50.4196 40.56 49.8351 40.8657 49.2722C43.1557 50.2533 45.8372 50.5214 47.9931 49.24C47.7625 49.3794 49.7522 49.2614 50.4494 46.6771L50.9428 46.3554C51.3182 47.0846 51.8223 47.7548 52.5893 48.0872L52.6052 48.0711Z" fill="var(--fill-0, #412006)"/>
<path id="Vector_38" d="M51.4523 57.7597C50.5567 57.4165 50.8248 55.9474 50.1008 55.0413C50.5781 54.8751 50.5084 54.3229 50.326 53.9207C50.4708 53.5079 51.0662 53.1594 51.1734 52.768C52.0798 53.7009 50.3797 54.1674 51.8545 55.1646C51.3236 55.5024 50.8087 55.8295 51.2753 56.6445C51.7258 56.3817 51.5435 55.8348 52.0316 55.6633L51.4523 57.7651V57.7597Z" fill="var(--fill-0, #42240D)"/>
<path id="Vector_39" d="M64.8973 58.3441C64.6667 57.0519 64.495 55.7973 64.6077 54.2371C64.066 54.3657 63.9373 54.6875 63.578 54.7035C63.5512 54.4676 63.8676 54.0923 64.066 53.9958C64.2323 53.9154 64.5112 53.9583 64.5273 53.7545L64.5916 53.095C64.6398 52.5964 64.5112 52.0173 64.9027 51.8618C65.1386 54.0065 64.8008 56.1941 64.9027 58.3387L64.8973 58.3441Z" fill="var(--fill-0, #2E2C2B)"/>
<path id="Vector_40" d="M50.326 53.9207C50.5083 54.3228 50.5781 54.8751 50.1008 55.0413C49.2963 54.9394 48.6689 55.4595 47.9932 55.8777C48.4115 54.977 49.1515 54.1298 50.0525 53.6955C50.1276 53.792 50.2187 53.8671 50.326 53.9207Z" fill="var(--fill-0, #2F2D2D)"/>
<path id="Vector_41" d="M54.1175 59.1698C53.8762 59.4218 53.7851 60.1778 53.2273 60.1188C52.3961 60.033 52.2887 59.1483 52.0688 58.6443L54.1175 59.1698Z" fill="var(--fill-0, #192635)"/>
<path id="Vector_42" d="M60.5158 57.7382C60.4032 57.9688 60.296 58.6444 59.9581 58.5639L58.7568 58.2744V58.0278C58.8963 57.9849 58.9981 57.883 59.0463 57.7543C59.3627 58.001 59.7221 57.9742 59.84 57.7275L60.4086 56.5587C60.4783 56.993 60.2905 57.3629 60.5158 57.7329V57.7382Z" fill="var(--fill-0, #2B1707)"/>
<path id="Vector_43" d="M33.9849 61.7649C33.9956 62.4726 34.6285 63.754 35.1112 64.9979L34.7947 65.2768C33.8294 64.0757 33.6202 62.5369 33.0518 61.2126C33.2341 61.1107 33.4272 61.0196 33.6256 60.9499C33.749 61.2019 33.9796 61.47 33.9849 61.7649Z" fill="var(--fill-0, #1E2833)"/>
<path id="Vector_44" d="M40.9784 63.2715C41.4289 63.2983 41.8848 63.9739 41.8901 64.3599C40.7693 64.0811 39.6002 63.9256 38.651 63.2608C38.415 63.0946 38.1521 62.9498 38.0127 62.6817C38.9995 62.9337 39.9595 63.2125 40.9784 63.2715Z" fill="var(--fill-0, #38312D)"/>
<path id="Vector_45" d="M38.0072 62.6817C38.1466 62.9498 38.4095 63.0945 38.6455 63.2608C37.9966 63.2768 37.3529 63.1696 36.6611 63.0731C36.5109 63.4377 36.5485 63.695 36.2964 63.9631C35.8406 63.5342 35.5671 63.3144 35.3794 62.9927L35.6475 63.0141C35.964 62.8479 36.3018 62.049 36.7362 62.2581C37.2296 62.494 37.605 62.5745 38.0072 62.6763V62.6817Z" fill="var(--fill-0, #3F4A55)"/>
<path id="Vector_46" d="M64.4843 42.688C64.6291 43.5245 64.629 44.318 64.5915 45.1651C64.5057 47.4063 64.6452 49.6475 64.8919 51.8618C64.5004 52.012 64.629 52.591 64.5808 53.095L64.5165 53.7545C64.495 53.9583 64.2161 53.9154 64.0552 53.9958C64.2644 52.9181 64.1679 51.7171 63.83 50.575C63.0792 51.0093 63.7495 51.6098 63.2722 52.1996C63.0363 50.7145 63.047 49.2186 63.653 47.6315C63.712 47.2133 62.6769 47.3473 62.323 47.1329C61.1002 46.3661 60.6176 44.9399 60.2314 43.7121H60.5263C60.4244 43.2028 61.6955 46.6503 62.4302 46.7093C62.6286 46.7254 62.9772 46.409 62.945 46.0337L62.5965 41.7068L64.4843 42.6988V42.688Z" fill="var(--fill-0, #3E1F07)"/>
<path id="Vector_47" d="M53.1954 37.9698C52.7556 38.8276 52.9808 39.8624 52.7985 40.908C52.6376 41.8087 52.1978 42.5915 52.3372 43.4119C52.0262 44.3233 51.1734 45.0525 51.1305 46.0391C51.0662 46.1141 51.0019 46.2643 50.9537 46.3447L50.4602 46.6664C49.4841 47.3044 48.9693 48.366 47.9503 48.9451C46.2073 49.374 44.6521 49.3043 43.0003 49.0041C42.8019 48.7146 42.3996 48.6609 42.051 48.4197C44.0782 46.3233 44.2445 45.6262 45.907 44.0124C46.3253 44.0124 46.9904 44.1518 47.3336 43.7068C47.945 42.9079 47.8538 41.9267 47.9235 41.0742C48.4008 41.5728 50.2725 38.3505 50.0098 38.1253C52.5518 37.8196 52.4714 34.3882 52.9594 34.0611C53.4421 35.7929 52.2622 35.6375 53.1954 37.9751V37.9698Z" fill="var(--fill-0, #A27654)"/>
<path id="Vector_48" d="M53.19 30.9407C53.2382 31.0854 53.19 31.2677 53.2598 31.4071C53.0935 32.1792 52.6859 32.8441 52.3909 33.6912C52.7878 33.8038 52.954 33.525 53.19 33.4606C53.1792 33.5572 53.249 33.6858 53.2222 33.7716C53.1525 33.8628 53.0667 33.9968 52.9648 34.0665C52.4714 34.3936 52.5572 37.825 50.0151 38.1307H49.7416C49.023 37.3693 48.787 36.6294 48.9479 35.6268C50.4334 34.7528 49.2911 34.6992 51.8814 32.131C52.3373 31.6752 52.4445 30.753 53.1953 30.946L53.19 30.9407Z" fill="var(--fill-0, #A18270)"/>
<path id="Vector_49" d="M57.3356 27.2786C58.2795 28.0829 55.2119 31.3696 55.2065 31.3749L53.6513 33.8788C53.5816 33.9914 53.3134 33.7877 53.2169 33.7662C53.2437 33.6804 53.1793 33.5518 53.1846 33.4553C53.4957 33.1175 53.7316 32.7529 53.8067 32.3025C53.9408 31.5251 53.914 30.7423 53.7585 29.9648C53.7156 29.048 54.3162 28.3724 55.2815 27.8416C55.1689 27.5896 54.8793 27.5628 54.7452 27.3859C54.8418 27.3644 54.8901 27.1714 54.9759 27.1178C55.7536 26.8229 56.5472 27.1285 57.3356 27.2786Z" fill="var(--fill-0, #442E16)"/>
<path id="Vector_50" d="M54.5949 41.9749C54.2356 41.7605 53.903 41.8034 53.5598 41.9642C53.3452 42.0661 52.8948 41.9106 52.9055 42.4843C52.9162 42.9561 52.4281 43.1491 52.337 43.4118C52.1975 42.5915 52.6374 41.8087 52.7982 40.908C52.9806 39.8678 52.7553 38.833 53.1951 37.9698C53.6778 37.959 53.8709 40.9455 54.5949 41.9749Z" fill="var(--fill-0, #2B1C10)"/>
<path id="Vector_51" d="M55.4853 46.6074C55.2172 46.9613 53.694 50.1997 53.1577 50.0389L53.6886 48.425C54.1713 46.9559 54.8095 45.5458 54.3483 44.0016C54.9114 44.763 55.2172 45.6798 55.4853 46.6128V46.6074Z" fill="var(--fill-0, #221308)"/>
<path id="Vector_52" d="M45.585 21.1932C45.7405 20.7213 41.5681 27.2626 41.2839 27.032C40.5062 26.7961 39.852 26.3028 39.1494 25.906L39.1709 25.2841C40.4258 24.6943 40.7797 23.0644 41.922 22.244C42.6729 21.7079 43.1234 21.1824 43.5685 20.539C43.8635 20.1155 44.6251 19.9814 44.8074 19.2093C44.8825 18.8823 45.4778 18.8233 45.7459 18.9144C46.3627 19.1236 45.7191 20.7964 45.5904 21.1932H45.585Z" fill="var(--fill-0, #442E15)"/>
<path id="Vector_53" d="M53.1898 30.9406C52.439 30.7476 52.3318 31.6698 51.8759 32.1256C49.291 34.6938 50.4279 34.7474 48.9424 35.6214C49.0496 34.9565 49.3714 34.1576 49.1033 33.4981C50.0579 32.8494 50.0525 31.0747 49.3607 30.2007C49.4572 29.4608 49.8219 28.2116 50.8141 28.2759C52.2353 28.367 52.8144 29.8361 53.1898 30.9353V30.9406Z" fill="var(--fill-0, #A17554)"/>
<path id="Vector_54" d="M39.1496 25.906C39.8521 26.3028 40.5064 26.7907 41.284 27.032C41.2894 27.2196 41.3483 27.4288 41.477 27.5253C41.6594 27.6593 41.933 27.5842 42.0885 27.6325C42.3727 28.0453 42.7964 28.3939 42.9733 28.8603C42.0831 28.7477 41.1178 28.9944 40.3079 28.4957C40.2543 28.3349 40.1149 28.0453 40.3455 27.9542C40.544 27.8791 40.8388 28.0561 40.9461 27.7236L38.6133 26.2117C38.6401 26.1205 38.6133 25.9168 38.7581 25.8953C38.86 25.8792 39.0584 25.8524 39.1496 25.906Z" fill="var(--fill-0, #29190A)"/>
<path id="Vector_55" d="M45.3333 29.107C45.1456 29.1391 44.9256 29.2196 44.8612 29.3536C44.7594 29.552 44.6789 29.804 44.7486 29.9755C44.1587 29.6538 43.676 28.9515 42.9681 28.8603C42.7911 28.3939 42.3675 28.0453 42.0833 27.6325C44.3625 27.4234 43.1398 28.0829 45.3333 29.107Z" fill="var(--fill-0, #251204)"/>
<path id="Vector_56" d="M54.7451 27.3859C54.8792 27.5628 55.1688 27.5896 55.2814 27.8416C54.316 28.3778 53.7155 29.048 53.7584 29.9648C53.7208 29.7879 53.4902 29.5627 53.5491 29.3482C53.9246 28.6619 53.8924 27.5789 54.7451 27.3859Z" fill="var(--fill-0, #40240C)"/>
<path id="Vector_57" d="M33.9207 44.318C34.5857 44.9936 35.1541 45.7496 35.5778 46.7361C36.275 46.023 35.4331 45.6209 35.6637 45.133C36.5379 45.578 36.6504 46.6879 37.4656 47.1972C37.6855 47.3313 37.8357 47.5457 38.0234 47.7173C38.0502 48.4304 37.5514 48.9183 37.0902 49.5027C34.945 52.2372 34.4409 51.2882 32.7998 54.5588C32.3708 55.4166 31.2392 55.4595 30.9925 56.2745C30.3865 55.8885 29.9145 55.4971 30.0218 54.7035C30.2578 54.3765 30.4133 53.9475 30.6761 53.6473C31.5878 52.6071 31.502 51.2828 31.9257 49.8941L32.4941 48.0229C32.6657 47.4492 33.4916 46.9077 33.202 46.023C33.0465 45.5405 32.4995 45.46 31.8452 45.5136C31.4644 45.5458 31.3465 45.8568 31.2768 46.2911C30.8853 47.1865 30.1075 47.8942 29.8179 48.9451C29.6624 49.5081 29.0564 49.4116 28.7453 49.5456C28.8901 48.9987 28.5201 48.602 28.3431 48.1569C27.8068 46.8165 27.7801 45.3635 27.5066 43.9641C28.6865 43.0741 29.3192 41.6372 30.365 40.5809C30.424 40.7525 30.5045 40.7471 30.6064 40.6077C30.8156 42.3824 32.1724 44.0231 33.9207 44.318Z" fill="var(--fill-0, #412006)"/>
<path id="Vector_58" d="M25.7744 41.3905L26.0157 41.6586C26.3429 42.7524 26.5198 43.8086 26.6217 44.9131C26.3053 45.5297 25.9299 46.1088 25.4794 46.6289C25.2649 45.8997 25.6886 44.0177 24.9109 43.9373L24.8733 43.1545C24.8412 42.42 24.8037 41.3262 25.7691 41.3905H25.7744Z" fill="var(--fill-0, #A08272)"/>
<path id="Vector_59" d="M24.8839 47.5082C24.4978 47.8835 23.8649 48.0068 23.393 48.0872C23.216 47.8888 23.023 47.7012 22.8139 47.5403C23.2376 46.6932 22.4116 45.9801 22.2615 45.1061C22.3848 44.704 22.7494 44.4574 23.1195 44.2912C24.0151 46.8272 24.9054 45.1866 24.8839 47.5135V47.5082Z" fill="var(--fill-0, #9E8273)"/>
<path id="Vector_60" d="M21.929 46.9506C22.0952 47.2937 22.4385 47.4921 22.8139 47.5404C23.0231 47.7066 23.2214 47.8889 23.393 48.0872C22.8836 48.8057 22.0846 49.3687 21.3445 49.8405C21.2587 49.7386 21.1621 49.6421 21.0602 49.5563C21.0388 48.9719 20.9958 47.7334 20.5078 47.2294L21.0226 46.8701C21.3283 46.8755 21.6286 46.9023 21.929 46.9506Z" fill="var(--fill-0, #9D8275)"/>
<path id="Vector_61" d="M32.4993 48.0175L31.9309 49.8887C31.5072 51.2774 31.593 52.6017 30.6813 53.6419C30.751 53.2934 30.4292 53.1165 30.1182 53.1057C32.0006 52.0977 30.7725 49.0577 32.1991 47.7923C32.3117 47.8459 32.4135 47.9264 32.4993 48.0122V48.0175Z" fill="var(--fill-0, #2B2018)"/>
<path id="Vector_62" d="M27.4098 49.5992C27.324 49.7654 27.2597 50.0013 27.4743 50.0871C26.8843 50.8002 26.5679 51.7814 25.4792 52.1353C25.7367 51.0415 26.5196 49.9424 27.4098 49.5992Z" fill="var(--fill-0, #2C2017)"/>
<path id="Vector_63" d="M60.7838 37.8572L60.7999 39.0421C60.5586 39.1172 60.2851 39.2887 60.2636 39.4871C60.2261 39.782 60.6444 41.1439 61.1861 41.1385C61.3577 41.1385 61.5401 40.908 61.7118 40.7954L62.5966 41.6961L62.9451 46.023C62.9773 46.3983 62.6287 46.7146 62.4303 46.6986C61.6956 46.6449 60.4245 43.192 60.5264 43.7014C60.0169 41.176 59.6094 38.6293 60.076 36.0664C60.8161 36.7098 60.3816 37.38 60.7838 37.8572Z" fill="var(--fill-0, #412006)"/>
<path id="Vector_64" d="M61.7118 40.7954C61.5456 40.908 61.3578 41.1385 61.1861 41.1385C60.6445 41.1385 60.2315 39.7874 60.2637 39.4871C60.2852 39.2941 60.5587 39.1225 60.8 39.0421C60.8107 39.5997 61.256 40.3343 61.7065 40.7954H61.7118Z" fill="var(--fill-0, #3D1E06)"/>
<path id="Vector_65" d="M43.5633 20.5444C43.1182 21.1931 42.6623 21.7132 41.9168 22.2494C40.7745 23.0697 40.4206 24.6997 39.1657 25.2894C38.2057 24.9195 38.1252 25.906 37.2886 24.4209C37.058 24.6728 36.881 24.8552 36.7255 24.9624C36.6236 25.0321 36.4788 24.9731 36.3662 24.8176C36.1946 24.5817 36.0872 24.2493 35.7386 24.1152L35.6743 26.4851C35.6583 27.1714 35.0146 27.7933 35.0844 28.5493L34.5373 28.0078C33.8294 29.2571 33.5505 30.4849 33.2073 31.7342L32.9928 29.6217C32.4994 30.0667 32.6496 30.6618 32.4565 31.139C32.124 31.9754 31.8558 32.8601 31.8719 33.7716C31.518 34.1952 31.3571 34.7313 31.3249 35.2729L30.9817 35.5249C31.03 35.23 31.2016 34.7367 30.5849 34.5169C30.2524 35.1871 30.5312 35.7876 30.3864 36.3774C29.6463 37.1655 28.9598 38.2111 28.0964 38.7419C27.914 37.0905 27.8658 35.4284 27.7747 33.7716C28.0535 33.6161 28.3002 33.3212 28.3217 32.8333C28.5201 27.9971 28.8525 29.0641 30.3488 26.0991C30.5472 25.7077 31.0354 25.4503 30.7136 25.0589C31.2981 23.9812 32.6388 23.6863 33.3521 22.689C34.6232 22.4799 35.8782 22.2762 37.1653 22.3673C37.1331 22.6193 37.2028 22.8392 37.4173 22.8821C37.6908 22.9357 37.9321 22.8981 38.27 22.748C38.8813 23.0107 38.9725 22.9142 38.447 22.4585C42.9304 20.9626 41.0266 20.0028 42.9948 19.3809C43.3648 19.2629 43.7349 19.0485 44.0942 18.893C43.9333 19.7187 43.2093 19.9117 43.574 20.5444H43.5633Z" fill="var(--fill-0, #402006)"/>
<path id="Vector_66" d="M24.8732 43.1545L24.9107 43.9373C24.7767 44.1732 24.6426 44.4091 24.3798 44.6879C23.6183 44.3448 23.334 43.5137 23.6826 42.7953L24.8678 43.1491L24.8732 43.1545Z" fill="var(--fill-0, #3D2B19)"/>
<path id="Vector_67" d="M30.4134 37.2567C30.4026 37.3425 30.4134 37.4336 30.4134 37.5248C29.7323 38.4094 30.2631 39.5407 30.365 40.5809C29.3193 41.6372 28.6811 43.0741 27.5067 43.9641C27.3243 43.0419 26.965 41.8302 26.0157 41.6586L25.7744 41.3905C26.1498 41.0581 26.4394 40.6452 26.67 40.2002C27.5227 40.2002 27.7533 39.1762 28.0965 38.7365C28.9653 38.2057 29.6464 37.1602 30.3865 36.372C30.3168 36.6508 30.4509 36.9725 30.4187 37.2567H30.4134Z" fill="var(--fill-0, #442F17)"/>
<path id="Vector_68" d="M42.5016 19.3648C42.6571 19.338 42.8287 19.3809 42.9842 19.3755C41.0213 19.9975 42.9252 20.9572 38.4364 22.4531C38.962 22.9089 38.8707 23.0107 38.2594 22.7427C37.9215 22.8874 37.6802 22.9303 37.4067 22.8767C37.1922 22.8338 37.1225 22.614 37.1547 22.362C37.2566 22.3673 37.3799 22.2869 37.4817 22.2601C38.0502 22.0885 38.8064 22.1851 39.3695 21.7293C39.9756 21.236 40.3349 20.598 40.839 20.1369C41.3109 19.7133 41.8526 19.4881 42.4962 19.3702L42.5016 19.3648Z" fill="var(--fill-0, #3D200B)"/>
<path id="Vector_69" d="M38.3451 48.0014C38.6132 48.9934 37.8088 49.3043 37.2403 49.9316C36.4734 50.7734 36.0068 51.7278 35.2667 52.7304C35.9157 52.2693 36.5055 52.4999 37.0633 52.3497C37.8034 52.146 38.0823 51.1059 38.8492 51.0844C37.6586 53.1969 37.6801 51.8833 34.843 54.859C34.4676 55.2558 33.7972 55.3791 33.9045 56.001C33.3146 56.4782 32.5692 56.9501 32.4673 57.7436C31.8398 57.4112 31.5877 56.6605 31.0032 56.2852C31.2445 55.4649 32.376 55.4274 32.8104 54.5695C34.4515 51.2989 34.9556 52.2532 37.1008 49.5134C37.5621 48.929 38.0662 48.4411 38.034 47.728C38.1305 47.8191 38.2432 47.9425 38.3558 48.0122L38.3451 48.0014Z" fill="var(--fill-0, #442C13)"/>
<path id="Vector_70" d="M40.8765 49.2614C40.5762 49.8244 40.2652 50.4088 39.7074 50.752C39.4125 50.7788 39.1389 51.0683 38.8439 51.0737C38.077 51.0951 37.7981 52.1407 37.058 52.339C36.5002 52.4945 35.9104 52.264 35.2615 52.7197C36.0069 51.7171 36.4735 50.7627 37.235 49.9209C37.8035 49.299 38.608 48.9826 38.3398 47.9907C39.1765 48.4947 40.0023 48.8808 40.8712 49.2561L40.8765 49.2614Z" fill="var(--fill-0, #452F16)"/>
<path id="Vector_71" d="M39.7073 50.752C39.3212 51.6367 38.6132 52.4087 37.8946 53.1755C35.4061 53.6366 36.3072 54.7786 33.8992 55.9903C33.7919 55.3738 34.4623 55.2451 34.8377 54.8483C37.6747 51.8726 37.6533 53.1862 38.8438 51.0737C39.1388 51.063 39.407 50.7734 39.7073 50.752Z" fill="var(--fill-0, #42250B)"/>
<path id="Vector_72" d="M44.1639 62.9552C44.062 63.234 43.7779 63.4591 43.7457 63.7755C42.6892 63.4377 41.6755 62.3868 41.9115 61.2394C42.4692 62.226 43.1771 63.0946 44.1639 62.9552Z" fill="var(--fill-0, #291506)"/>
<path id="Vector_73" d="M32.4619 57.7329C32.5585 58.135 32.6711 58.5371 32.7247 58.95C33.2717 59.7435 29.9574 55.1164 30.9978 57.4433C30.5849 57.186 30.8852 56.6605 30.9978 56.2745C31.5878 56.6498 31.8345 57.4005 32.4619 57.7329Z" fill="var(--fill-0, #423E3D)"/>
<path id="Vector_74" d="M49.7415 38.1253H50.015C50.2778 38.3505 48.4061 41.5728 47.9287 41.0742C47.8215 40.8758 47.7732 40.7203 47.6606 40.6131C47.43 40.3879 47.0867 40.5112 47.1028 40.715C47.2744 42.747 46.883 43.0741 45.9176 44.0124C44.2497 45.6316 44.0889 46.3286 42.0617 48.4197C42.4103 48.6663 42.8125 48.7146 43.0109 49.0041C41.3323 48.6985 39.5625 48.4679 38.4148 46.9399C38.4148 46.4788 39.3104 47.1329 39.4767 46.9399L44.7324 41.0367C45.5369 40.1305 46.2985 39.3424 46.5344 38.2486C46.3843 38.9349 47.666 35.6375 47.961 36.1897C48.0307 36.935 48.2399 37.7714 48.9746 38.2593C49.2964 38.4738 49.6396 38.3665 49.7522 38.1199L49.7415 38.1253Z" fill="var(--fill-0, #A58572)"/>
<path id="Vector_75" d="M53.5598 41.9642C53.8494 42.5915 53.9299 43.428 54.3482 43.9963C54.8094 45.5405 54.1712 46.9506 53.6885 48.4197C53.3882 48.291 53.0771 48.1409 52.8733 47.8674C52.0045 46.6986 53.3667 47.7441 51.1304 46.0337C51.1733 45.0472 52.0206 44.318 52.337 43.4065C52.4282 43.1438 52.9163 42.9508 52.9056 42.4789C52.8895 41.9106 53.3453 42.0607 53.5598 41.9589V41.9642Z" fill="var(--fill-0, #A07452)"/>
<path id="Vector_76" d="M47.9288 41.0742C47.8591 41.9267 47.9504 42.9079 47.339 43.7068C46.9958 44.1518 46.3307 44.0124 45.9124 44.0124C46.8777 43.0794 47.2639 42.747 47.0977 40.7149C47.0816 40.5112 47.4247 40.3879 47.6553 40.6131C47.768 40.7203 47.8162 40.8758 47.9235 41.0742H47.9288Z" fill="var(--fill-0, #2D221A)"/>
<path id="Vector_77" d="M53.812 32.3079C53.7316 32.7582 53.501 33.1228 53.19 33.4606C52.954 33.525 52.7877 33.8038 52.3909 33.6912C52.6912 32.8494 53.0935 32.1845 53.2597 31.4071C53.4099 31.7288 53.5814 32.0398 53.8066 32.3079H53.812Z" fill="var(--fill-0, #25292F)"/>
<path id="Vector_78" d="M39.1658 25.2895L39.1443 25.9114C39.0478 25.8578 38.8494 25.89 38.7528 25.9007C38.6134 25.9221 38.6348 26.1259 38.608 26.217C38.2433 26.528 38.5276 27.0642 38.8976 27.3108C38.5866 27.2786 38.2755 27.1821 37.9699 27.3108C37.7017 26.9945 37.1439 25.9436 36.806 26.2653L35.9426 27.091L35.9587 26.4637C36.3395 26.0026 36.3395 25.3913 36.361 24.8176C36.4736 24.9731 36.6183 25.0321 36.7202 24.9624C36.8758 24.8552 37.0528 24.6782 37.2834 24.4209C38.12 25.9007 38.2004 24.9195 39.1604 25.2895H39.1658Z" fill="var(--fill-0, #2D1707)"/>
<path id="Vector_79" d="M44.4427 31.7288C44.8396 31.7932 45.2097 32.0023 45.6173 32.0398C46.2233 32.7314 46.7489 33.4767 47.0492 34.3507C47.3549 35.8144 46.8454 37.0476 45.9712 38.2164C45.7084 38.5703 45.3008 38.7204 45.022 39.026C42.3244 39.0046 43.9011 39.6212 40.8817 38.6829C40.3937 38.2379 39.8627 37.5033 39.4873 36.9725C39.2996 35.3962 39.4659 33.7662 40.6029 32.592C41.1606 32.0183 42.2225 31.82 43.0269 31.4768C43.5257 31.2677 44.0673 31.6645 44.4373 31.7235L44.4427 31.7288ZM43.869 36.5436C43.9601 35.7501 42.9679 35.0531 42.5603 35.3479C42.1044 35.6804 42.5818 36.4256 42.8607 36.6455C43.0805 36.817 43.7939 37.2138 43.869 36.5436Z" fill="var(--fill-0, #A68674)"/>
<path id="Vector_80" d="M40.3026 28.4957C41.1124 28.989 42.0724 28.7477 42.968 28.8603C43.6706 28.9515 44.1586 29.6538 44.7486 29.9755C44.8558 30.249 45.022 30.501 45.0971 30.7154C45.258 31.1926 44.8451 31.3642 44.4482 31.3159C43.0378 30.7208 41.4611 31.3428 40.3671 32.3454C38.2326 34.3078 39.4982 36.8009 36.8435 36.2272C36.3287 36.1146 35.6261 36.0342 35.1059 36.1254C34.9558 35.5999 34.3122 35.9055 33.6096 35.7822C33.7598 35.3211 34.2586 35.423 34.5804 35.2728C35.8836 34.667 36.5647 33.1979 37.4174 32.0076C38.2701 30.8173 39.5197 29.8897 39.82 28.5118C39.9595 28.544 40.1739 28.4474 40.2973 28.5011L40.3026 28.4957ZM39.466 31.7502L41.9921 30.8763C42.6839 30.812 42.5176 30.0935 41.7346 30.2275C40.528 29.8951 39.0853 30.324 38.6187 31.7341C38.5275 32.013 38.9191 32.1095 39.037 32.0666C39.1389 32.0291 39.2729 31.9915 39.466 31.7502Z" fill="var(--fill-0, #A27653)"/>
<path id="Vector_81" d="M44.4427 31.3159V31.7288C44.0673 31.6698 43.5311 31.2677 43.0323 31.4821C42.2332 31.8199 41.166 32.0237 40.6082 32.5974C40.6082 32.458 40.5225 32.3132 40.3616 32.3508C41.4556 31.3481 43.0269 30.7208 44.4427 31.3213V31.3159Z" fill="var(--fill-0, #2A211A)"/>
<path id="Vector_82" d="M38.9029 27.3108C39.4446 27.3644 39.9915 27.5145 40.3455 27.9596C40.1095 28.0507 40.2489 28.3402 40.3079 28.5011C40.1846 28.4475 39.9701 28.544 39.8307 28.5118C39.2139 28.1204 38.4631 27.8738 37.9805 27.3108C38.2862 27.1821 38.5972 27.2786 38.9083 27.3108H38.9029Z" fill="var(--fill-0, #382617)"/>
<path id="Vector_83" d="M40.3402 27.9542C39.9916 27.5092 39.4393 27.359 38.8976 27.3054C38.5276 27.0534 38.2433 26.5226 38.608 26.2116L40.9408 27.7236C40.8282 28.0561 40.5387 27.8791 40.3402 27.9542Z" fill="var(--fill-0, #3B2713)"/>
<path id="Vector_84" d="M35.0844 28.544C35.1166 28.93 35.1058 29.3161 35.1702 29.7021C35.197 29.8576 35.1756 30.0881 35.1327 30.2329C34.9182 30.9621 33.0573 34.5758 32.2099 34.6563C31.8721 34.6884 31.577 35.0798 31.325 35.2621C31.3571 34.7152 31.518 34.1791 31.872 33.7609C31.872 33.8681 31.7755 34.0343 32.0544 34.3453L32.7676 31.9969C32.8856 31.6162 32.7355 31.2141 32.4512 31.1283C32.6389 30.6511 32.4888 30.056 32.9875 29.6109L33.202 31.7234C33.5452 30.4742 33.8241 29.2463 34.532 27.9971L35.0791 28.5386L35.0844 28.544Z" fill="var(--fill-0, #261508)"/>
<path id="Vector_85" d="M34.5804 35.2729C34.2586 35.423 33.7598 35.3211 33.6096 35.7822C34.3122 35.9056 34.9558 35.5999 35.1059 36.1254C33.8563 36.3452 32.8642 37.0744 31.8935 37.8465C31.813 37.7017 31.6736 37.6588 31.5181 37.6213C30.9067 37.1012 30.8638 36.2755 30.9818 35.5302L31.325 35.2782C31.577 35.0906 31.8721 34.7045 32.21 34.6724C32.1456 34.9244 32.0544 35.2139 31.7702 35.4659C31.1588 36.0021 31.0193 37.0047 31.8989 37.4283C32.226 35.6965 33.7866 34.0987 34.5106 34.8332C34.5964 34.919 34.5535 35.1603 34.5804 35.2836V35.2729Z" fill="var(--fill-0, #2A221D)"/>
<path id="Vector_86" d="M35.964 26.4583L35.9479 27.0856C35.9264 27.9864 35.5886 28.9193 35.1649 29.7021C35.1005 29.3161 35.1166 28.93 35.079 28.544C35.0093 27.788 35.6529 27.1714 35.669 26.4797L35.9586 26.4583H35.964Z" fill="var(--fill-0, #24160B)"/>
<path id="Vector_87" d="M40.6459 38.9349C41.933 39.8625 43.9227 40.2592 45.0328 39.0314C45.3117 38.7258 45.7139 38.5757 45.9821 38.2218L46.5291 38.254C46.2931 39.3477 45.5315 40.1359 44.7271 41.042L39.4713 46.9452C39.3051 47.1329 38.4148 46.4788 38.4095 46.9452C38.2271 46.6986 37.6962 46.7308 37.4602 46.5592C37.4441 45.6692 36.4842 45.074 36.0229 44.3127C36.275 44.2161 36.452 43.9963 36.6022 43.7818C37.1224 43.6853 37.5246 43.3154 37.7283 42.8328C39.5303 43.0151 39.6269 39.1494 39.2676 37.7875C39.7127 38.2111 40.1579 38.581 40.6567 38.9403L40.6459 38.9349Z" fill="var(--fill-0, #A37654)"/>
<path id="Vector_88" d="M37.975 27.3054C37.621 27.7397 37.2081 28.1365 36.7468 28.5708C36.5806 29.4715 35.8941 29.9863 35.1326 30.2329C35.1755 30.0828 35.1968 29.8522 35.17 29.7021C35.5937 28.9193 35.9263 27.9864 35.9531 27.0856L36.8165 26.2599C37.1544 25.9382 37.7122 26.9945 37.9804 27.3054H37.975Z" fill="var(--fill-0, #986F50)"/>
<path id="Vector_89" d="M40.8871 38.6882C40.7798 38.7419 40.6994 38.8277 40.6458 38.9349C40.1524 38.5757 39.7072 38.2057 39.2567 37.7821C39.1066 37.6427 39.0208 37.4336 38.8867 37.2781C39.0905 37.3264 39.3425 37.0851 39.4927 36.9779C39.8681 37.5087 40.3937 38.2486 40.8871 38.6882Z" fill="var(--fill-0, #392A1F)"/>
<path id="Vector_90" d="M36.8433 36.2272C37.0847 36.8117 37.6799 37.1012 38.2752 37.2513C39.1601 39.1654 39.2673 41.3155 37.7228 42.8274C37.519 43.31 37.1169 43.68 36.5966 43.7765C36.1944 43.7765 35.7815 43.6585 35.3792 43.6853C34.5533 40.5058 33.9956 42.3342 32.7299 40.1734C32.7192 39.5408 32.274 38.7955 31.8396 38.4041C31.8503 38.2057 32.0166 38.0502 31.8987 37.8411C32.8694 37.0744 33.8615 36.3452 35.1111 36.12C35.6313 36.0289 36.3338 36.1093 36.8487 36.2219L36.8433 36.2272ZM37.1919 40.9669C37.5244 40.1573 37.3474 39.0904 36.5483 38.9671C36.2212 38.9134 35.7064 38.9885 35.7011 39.1922C35.6796 39.8303 36.3177 40.4898 37.1919 40.9669Z" fill="var(--fill-0, #A58674)"/>
<path id="Vector_91" d="M39.8251 28.5118C39.5248 29.8951 38.2699 30.8227 37.4225 32.0076C36.5752 33.1925 35.8887 34.6724 34.5855 35.2729C34.5587 35.1495 34.6015 34.9136 34.5157 34.8225C33.7917 34.0933 32.2311 35.6857 31.904 37.4175C31.0244 36.994 31.1639 35.9913 31.7753 35.4552C32.0595 35.2032 32.1507 34.9136 32.2151 34.6616C33.0624 34.5812 34.9234 30.9675 35.1379 30.2383C35.8994 29.9916 36.5859 29.4769 36.7521 28.5762C37.2134 28.1419 37.6263 27.7397 37.9803 27.3108C38.463 27.8738 39.2138 28.1204 39.8305 28.5118H39.8251Z" fill="var(--fill-0, #A48472)"/>
<path id="Vector_92" d="M41.7346 30.2329C41.2358 30.6511 39.1548 31.1229 39.4659 31.7556C39.2728 31.9969 39.1388 32.0344 39.0369 32.0719C38.919 32.1148 38.5274 32.0237 38.6186 31.7395C39.0852 30.3294 40.5279 29.9005 41.7346 30.2329Z" fill="var(--fill-0, #3D2C1F)"/>
<path id="Vector_93" d="M39.4659 31.7502C39.1548 31.1176 41.2358 30.6457 41.7345 30.2275C42.5175 30.0935 42.6838 30.812 41.9919 30.8763L39.4659 31.7502Z" fill="var(--fill-0, #6B4E37)"/>
<path id="Vector_94" d="M32.7247 40.1734C32.7355 41.1546 32.9552 42.2055 33.8348 42.8006C33.7061 43.0312 33.5828 43.1223 33.4005 43.133C32.0115 43.251 31.8076 41.1546 31.2981 39.5515C31.2713 39.1118 31.8076 38.7686 31.829 38.4041C32.2634 38.7955 32.714 39.5354 32.7194 40.1734H32.7247Z" fill="var(--fill-0, #302215)"/>
<path id="Vector_95" d="M35.3793 43.6853C35.154 43.7014 34.7465 44.0231 34.4944 43.8194C34.532 43.1706 34.1994 43.0473 33.8454 42.8006C32.9605 42.2001 32.7461 41.1546 32.7354 40.1734C34.001 42.3342 34.5587 40.5058 35.3846 43.6853H35.3793Z" fill="var(--fill-0, #3D2F26)"/>
</g>
</g>
</svg>
