<svg preserveAspectRatio="none" width="100%" height="100%" overflow="visible" style="display: block;" viewBox="0 0 205.074 201.399" fill="none" xmlns="http://www.w3.org/2000/svg">
<g id="Lamp">
<path id="Vector" d="M105.905 199.313C95.8338 198.155 92.9999 197.528 83.1504 195.604C81.222 195.225 78.554 194.818 78.008 192.212C81.5261 186.098 89.2606 180.231 95.6818 176.764L99.9464 174.461C101.011 173.889 102.331 173.296 103.478 172.869L108.165 171.124C116.03 168.195 125.921 166.271 134.548 165.651C135.702 163.707 136.269 161.004 136.898 158.702L139.559 148.947L141.37 142.15L144.687 129.679L147.21 120.6L150.88 106.806L154.834 92.0188L157.654 81.6575L164.67 55.3441L166.729 47.8989L171.264 31.0781L172.556 26.3697L174.45 19.5242C174.865 18.0352 173.869 15.512 173.849 14.0299L168.451 13.6921L161.29 13.2992L150.901 13.0372L143.789 12.6167L130.85 12.3271L120.82 11.9135L110.929 11.5206L98.5157 11.1345L89.5993 10.7347L85.5489 10.6451L77.8283 10.3762L67.5502 10.0246L64.4537 9.91433C65.2416 11.1207 65.8706 11.7136 66.9005 12.6305C68.9603 14.478 70.5016 16.7667 72.0568 19.1382C74.6902 23.1503 76.3975 27.8518 76.9297 32.6981C77.2269 35.4556 77.6624 38.2476 77.0334 40.8052L76.4459 43.2111C76.2454 44.0384 75.7478 45.1965 75.1533 45.4998C74.3516 45.9135 73.1973 45.8445 72.3609 45.5481L55.3783 39.5367L27.1777 29.4029L10.2435 23.3433L2.73021 20.5996C1.59665 20.186 0.0414715 18.9934 0 17.7318C10.907 -0.185002 37.3935 -4.40397 55.4405 4.53032L60.583 4.72334C65.2071 4.89569 69.6791 4.84054 74.2686 4.88879L89.3297 5.05424L93.3939 5.18522L97.2577 5.19901L110.307 5.44029L113.826 5.48165L116.812 5.50234L121.892 5.55059L140.685 5.83324L146.353 5.93664L164.538 6.1986C168.098 6.24686 172.121 6.9707 175.349 6.23997C177.436 5.77119 178.901 3.86163 181.486 5.2128C183.083 6.04694 184.493 7.65318 184.832 9.94191C185.343 13.3681 181.88 15.2225 180.913 17.98C179.019 23.364 178.3 29.2306 177.153 34.911L175.383 43.6661L174.153 48.9191L168.692 74.4053L166.909 82.4227L165.057 90.7917L163.661 97.1753L161.877 105.475L160.605 111.494L158.663 120.407L154.177 141.095L152.38 149.519L150.88 156.227L150.134 159.605C149.678 161.68 149.263 163.148 148.938 165.568L154.634 166.106C159.175 166.533 165.9 168.077 170.42 169.305C178.328 171.448 184.811 174.585 191.688 178.928C194.059 180.424 196.34 181.755 198.365 183.644C200.605 185.732 202.83 187.642 204.724 190.041C205.443 190.958 204.973 192.619 204.047 192.888C202.754 193.26 201.863 193.639 200.688 194.115C192.884 197.279 177.927 199.913 169.563 200.361L151.979 201.298C147.231 201.553 142.676 201.236 137.934 201.285L134.064 201.319L130.559 201.016L119.528 200.568L115.678 200.43L105.898 199.306L105.905 199.313ZM181.714 10.3555C181.714 9.18359 180.761 8.23915 179.593 8.23915C178.424 8.23915 177.471 9.19049 177.471 10.3555C177.471 11.5206 178.424 12.4719 179.593 12.4719C180.761 12.4719 181.714 11.5206 181.714 10.3555Z" fill="var(--fill-0, black)"/>
</g>
</svg>
