<svg preserveAspectRatio="none" width="100%" height="100%" overflow="visible" style="display: block;" viewBox="0 0 75.3857 48.1845" fill="none" xmlns="http://www.w3.org/2000/svg">
<g id="Message">
<path id="Vector" d="M0.926665 10.8841C0.412198 12.087 1.4413 12.3358 2.13832 13.0078C5.34959 16.0938 9.14159 17.7779 13.0167 19.7937L25.256 26.1649C21.746 29.2343 10.4195 33.4735 9.29927 37.1486C11.2908 38.1441 15.5642 34.3362 19.3481 32.3867C21.9453 31.0511 24.028 28.6952 26.7912 27.708C28.7827 26.9945 30.882 28.9606 32.5333 29.6243C36.649 31.2751 43.7022 26.1732 47.7433 25.0284C49.8675 26.3474 50.7802 28.3384 52.4066 29.8482L63.5838 40.2512C64.0318 40.6743 64.7538 40.6328 65.0525 40.4337C66.8531 39.2308 62.8122 36.4849 63.0694 36.7919C59.3602 32.3702 54.9872 27.9734 50.1247 24.0246C52.9874 21.7101 64.8368 16.0938 66.347 15.1066L72.2965 11.191C73.3503 10.4942 74.3379 9.97153 74.9603 9.01752C76.0058 10.1292 74.8607 11.2408 74.3296 12.4768C72.3547 17.0561 72.2468 22.0336 71.3672 26.8867C70.5872 31.2005 69.3591 38.4759 69.218 42.8063C69.1516 44.93 67.6747 48.2898 65.1688 48.1819C61.999 48.0409 59.2108 47.734 56.1406 47.9331C48.4817 48.4391 41.0635 47.2943 33.4295 47.2279L25.6709 47.1616L16.3275 46.1826C14.4356 45.9835 12.859 45.1789 10.6849 45.3033C9.3158 45.3779 6.72689 45.436 5.93029 44.3742C4.7437 42.1094 5.83902 39.4465 5.5154 37.0407C5.05072 33.5814 4.61094 30.2547 3.85583 26.9198L0.686198 12.9082C0.570028 12.4105 0.0472063 12.0538 0.00571702 11.5229C-0.0440701 10.8592 0.229646 10.8426 0.926665 10.9007V10.8841Z" fill="var(--fill-0, white)"/>
<path id="Vector_2" d="M56.091 5.4835C56.2653 9.33275 58.5803 12.2861 63.0445 12.6013C57.3107 15.8201 51.9337 18.9393 46.0007 21.6105L36.9395 25.7003C34.641 26.7373 32.0437 26.5382 30.2348 24.8874C29.1478 23.8919 27.6625 23.8753 26.534 23.1536C21.8457 20.1754 17.1242 17.7032 12.021 15.538C11.0585 15.1315 4.57784 11.1661 3.07593 10.4029C2.12168 8.58612 19.6551 7.33346 21.1902 7.24221L37.7776 6.27992L47.7932 5.84852L56.091 5.46695V5.4835Z" fill="var(--fill-0, white)"/>
<path id="Vector_3" d="M68.6206 9.53185C70.0893 9.36593 71.1099 8.57782 71.8816 7.70677C72.4873 7.75654 73.4001 7.48282 74.205 7.69851C74.7361 7.83125 74.5785 8.58617 74.9685 9.00096C74.3462 9.95497 73.3586 10.4859 72.3048 11.1745L66.3553 15.09C64.8451 16.0855 52.9957 21.7018 50.1329 24.008C54.9955 27.9568 59.3685 32.3453 63.0777 36.7752C62.8204 36.4683 66.8614 39.2142 65.0607 40.4171C64.762 40.6162 64.0484 40.6577 63.592 40.2346L52.4148 29.8317C50.7885 28.3218 49.8841 26.3309 47.7515 25.0118C43.7105 26.1649 36.6572 31.2585 32.5415 29.6077C30.8819 28.944 28.7827 26.9862 26.7995 27.6913C24.0363 28.6785 21.9452 31.0346 19.3563 32.3702C15.5808 34.3114 11.299 38.1192 9.30753 37.132C10.436 33.4569 21.7543 29.2095 25.2643 26.1483L13.025 19.7772C9.14985 17.7613 5.35785 16.0773 2.14658 12.9912C1.44956 12.3193 0.420457 12.0787 0.934923 10.8675L1.28357 10.4112L2.24605 10.3614L3.08414 10.4029C4.58605 11.1578 11.0667 15.1232 12.0292 15.538C17.1324 17.7032 21.8539 20.1754 26.5422 23.1536C27.6707 23.8753 29.156 23.8919 30.243 24.8874C32.0519 26.5382 34.6492 26.7373 36.9477 25.7003L46.0089 21.6105C51.9419 18.9393 57.3189 15.8118 63.0527 12.6013" fill="var(--fill-0, #191919)"/>
<path id="Vector_4" d="M71.8815 7.70677C71.1098 8.57783 70.0892 9.36594 68.6205 9.53185C68.5707 8.14646 69.3259 7.33348 69.525 6.32969C70.4295 6.59516 71.3587 6.91867 71.8815 7.70677Z" fill="var(--fill-0, #DADADA)"/>
<path id="Vector_5" d="M62.7209 14.3849C66.6942 14.3849 69.9151 11.1647 69.9151 7.19243C69.9151 3.22015 66.6942 0 62.7209 0C58.7477 0 55.5265 3.22015 55.5265 7.19243C55.5265 11.1647 58.7477 14.3849 62.7209 14.3849Z" fill="var(--fill-0, #C74E39)"/>
</g>
</svg>
