<svg preserveAspectRatio="none" width="100%" height="100%" overflow="visible" style="display: block;" viewBox="0 0 67.3809 39.8765" fill="none" xmlns="http://www.w3.org/2000/svg">
<g id="Alexa">
<path id="Vector" d="M3.00548 11.8729L62.7666 8.08168C62.7666 8.08168 65.8284 9.81548 65.3056 13.0425L34.1804 29.0866L0.615594 16.4438C0.615594 16.4438 0.0514372 13.7145 2.99717 11.8812L3.00548 11.8729Z" fill="var(--fill-0, white)"/>
<path id="Vector_2" d="M4.06781 34.96C0.0848428 29.5097 -0.769958 23.6778 0.624082 16.4355C7.44492 19.4801 13.8011 20.1354 20.9704 20.5088C33.3757 21.1558 45.333 19.9446 57.1408 15.9378L60.4849 14.8012L65.2975 13.026C66.899 14.9008 67.1314 17.4393 67.2393 19.9363C67.4052 23.7358 67.8366 27.668 65.4883 31.0444C64.3515 32.6787 62.1858 34.8688 60.1612 35.3831C45.6648 39.0996 31.3013 40.3772 16.4066 39.7052C13.7347 39.5808 11.1542 39.0333 8.62332 38.5106C6.49907 38.0709 5.20459 36.5362 4.04289 34.9517L4.06781 34.96Z" fill="var(--fill-0, black)"/>
<path id="Vector_3" d="M17.2529 15.8217C14.8382 15.5894 4.05939 13.98 3.00556 11.8729C6.10066 6.53038 18.2404 1.86811 23.6837 0.947276C38.1801 -1.50828 50.0959 0.789686 62.7667 8.08168C63.1484 10.0561 60.858 10.5953 59.4889 10.9852C56.8751 11.7235 45.507 14.5192 43.5072 14.7929C34.7779 15.9627 26.1316 16.6761 17.2446 15.8299L17.2529 15.8217Z" fill="var(--fill-0, black)"/>
</g>
</svg>
