<svg viewBox="0 -13.998 47.364 104.311" xmlns="http://www.w3.org/2000/svg">
  <!-- Pen — left side, tips extend above the cup -->
  <g transform="translate(7.999,-13.998)">
    <path d="M11.4511 58.1162L8.91189 69.7386L7.55113 70.2198C6.99517 70.4189 7.59259 74.517 6.07408 73.8284C4.87919 73.2892 5.02025 71.2982 5.44344 69.9791L3.37728 69.133L1.70941 60.4722C1.22813 57.9835 0.730252 55.5528 0.663869 52.9479L0.116081 30.6737L0 12.7299C0 13.6341 1.41068 5.97717 1.91685 5.9274C1.95004 4.03596 1.21985 1.34808 3.59303 0.236447C4.97878 -0.41892 7.75858 0.360927 8.59666 1.67996L8.72936 6.4915C11.8742 10.7555 9.6836 10.8634 10.7955 14.7292C13.5836 14.0241 15.2764 15.5007 16.0647 17.8069C18.886 26.0446 15.6497 30.1096 12.7703 37.609L15.6912 37.9242C15.8903 38.6045 15.6663 40.1558 15.127 41.1098C14.5876 42.0638 13.2599 42.0639 11.5921 41.7569L11.6253 48.1032L11.7084 54.4992C11.725 55.6192 11.7415 56.8386 11.4594 58.1162H11.4511ZM8.28124 9.4365C8.25635 5.84442 3.71749 7.42892 2.95408 7.61972C2.59728 7.71097 2.71349 8.88895 2.78817 9.41159L8.28124 9.42819V9.4365ZM11.6668 35.9416C15.2017 28.1601 17.1682 27.0899 14.4548 18.678C12.148 24.3523 14.3138 26.2603 11.4511 31.3042C11.1607 32.7311 10.9781 34.1497 11.6668 35.9332V35.9416ZM7.6506 67.5568L8.73766 60.8372L3.29422 60.8787L4.92057 67.0258C5.05334 67.5402 5.6509 68.2536 6.08239 68.4444C6.4226 68.6021 7.58421 67.9965 7.6506 67.5485V67.5568Z" fill="black"/>
    <path d="M11.6667 35.9416C10.978 34.1497 11.1605 32.7394 11.4509 31.3125C14.3137 26.2687 12.1561 24.3524 14.4546 18.6863C17.168 27.0983 15.1933 28.1684 11.6667 35.9499V35.9416Z" fill="white"/>
    <path d="M7.65054 67.5568C7.57586 67.9965 6.42255 68.6104 6.08233 68.4528C5.65914 68.2537 5.06158 67.5402 4.92051 67.0342L3.29417 60.887L8.73761 60.8455L7.65054 67.5651V67.5568Z" fill="white"/>
    <path d="M8.28117 9.43651L2.7881 9.4199C2.71342 8.88897 2.59721 7.71099 2.95401 7.62804C3.72572 7.43723 8.26458 5.85274 8.28117 9.44482V9.43651Z" fill="white"/>
  </g>
  <!-- Pencil — right side, tips extend above the cup -->
  <g transform="translate(19.994,-13.998)">
    <path d="M24.2291 0.577361C23.1752 0.212346 21.9968 -0.310266 20.9679 0.237256C18.3872 1.60606 16.4788 7.49605 15.8897 10.3747C15.2673 13.4192 13.9313 15.9661 13.1181 18.9359L6.72052 42.4213L3.27699 55.761C2.21487 59.8757 0.380913 63.841 0.0324032 68.2461C-0.208234 71.357 0.961909 74.3269 1.21914 77.3466C1.3768 79.18 -0.805607 82.4485 1.55928 82.7306C2.04885 82.7886 6.93639 73.1572 8.51299 71.6391L21.665 25.3154L25.2829 12.5814C26.1791 9.42899 30.021 2.59324 24.2291 0.577361ZM3.63374 76.1852C2.20651 76.6912 1.1196 67.7401 3.11938 68.86C4.03215 69.3577 4.88665 70.5109 6.46324 69.5983C8.89451 68.2046 3.52587 76.1188 3.63374 76.1852ZM8.16434 67.4414C7.5337 67.9641 6.01514 67.9474 5.20195 67.9723C4.57131 67.3419 4.04044 66.4874 2.48874 66.2717L12.0892 30.3261L15.2258 17.9322C15.5826 16.5136 16.1717 14.5309 17.0513 13.3363C18.1466 11.8347 21.2751 12.3989 22.8019 13.5686L8.16434 67.4414ZM23.6979 11.9343C21.7562 10.8807 19.9888 10.4493 18.1799 10.7895C17.8978 10.242 18.0554 9.63639 18.3375 9.62809L19.8976 9.57002C21.6983 9.51195 23.98 9.77739 23.6979 11.9343ZM24.644 8.9893C23.4657 7.24719 21.7894 6.04429 19.3914 5.8203C19.7067 4.71696 19.6071 2.86703 20.7936 2.17019C22.5362 1.14981 25.0255 2.40246 25.9549 3.92059C25.6479 5.73737 25.3161 6.84069 24.644 8.9893Z" fill="black"/>
    <path d="M23.698 11.9343C21.7563 10.8807 19.9889 10.4494 18.18 10.7895C17.8978 10.242 18.0555 9.6364 18.3376 9.6281L19.8977 9.57002C21.6983 9.51195 23.9801 9.7774 23.698 11.9343Z" fill="#C7C7C7"/>
    <path d="M25.9549 3.9206C25.6479 5.73738 25.3161 6.8407 24.644 8.98931C23.4657 7.2472 21.7895 6.0443 19.3914 5.82032C19.7067 4.71698 19.6071 2.86705 20.7937 2.1702C22.5362 1.14982 25.0256 2.40247 25.9549 3.9206Z" fill="#C7C7C7"/>
    <path d="M3.63386 76.1852C2.20663 76.6912 1.11972 67.7401 3.1195 68.86C4.03226 69.3577 4.88676 70.5109 6.46336 69.5983C8.89463 68.2046 3.52599 76.1188 3.63386 76.1852Z" fill="#C7C7C7"/>
    <path d="M17.0597 13.3363C16.1801 14.5309 15.591 16.5136 15.2342 17.9322L12.0976 30.3261L2.49708 66.2717C4.04878 66.4874 4.57966 67.3419 5.21029 67.9723C6.02348 67.9475 7.54205 67.9724 8.17268 67.4414L22.8102 13.5686C21.2834 12.3989 18.155 11.8348 17.0597 13.3363ZM19.267 18.5129L14.5207 36.2078C12.8777 42.3467 11.326 48.2533 9.52534 54.2926C8.62087 57.3371 8.30551 60.4564 6.36381 63.3433C6.397 57.7022 8.7867 52.8159 9.80734 47.4403C10.0812 46.0466 10.521 44.8354 10.8778 43.533L13.0353 35.6437L17.6488 18.1147C17.7732 17.6335 18.4454 17.2353 18.7358 17.3266C19.0097 17.4095 19.3998 18.0151 19.267 18.5129Z" fill="#C7C7C7"/>
    <path d="M19.267 18.5128L14.5207 36.2078C12.8777 42.3467 11.326 48.2532 9.52534 54.2926C8.62087 57.3371 8.30551 60.4564 6.36381 63.3433C6.397 57.7022 8.7867 52.8159 9.80734 47.4403C10.0812 46.0466 10.521 44.8354 10.8778 43.533L13.0353 35.6437L17.6488 18.1147C17.7732 17.6335 18.4454 17.2353 18.7358 17.3266C19.0097 17.4095 19.3998 18.0151 19.267 18.5128Z" fill="black"/>
  </g>
  <!-- Cup — sits at the bottom, painted on top of the pen/pencil bases -->
  <g transform="translate(0,35.784)">
    <path d="M32.1212 52.541C22.9271 55.3782 6.23169 56.3405 0 47.0243L0.0415298 10.5561C0.0415298 8.3245 0.506299 5.81088 1.58502 4.02729C2.73842 2.11926 5.61781 1.3809 7.42674 2.07775C9.61737 2.92392 11.0777 4.12683 12.3473 5.98508C14.1977 3.72863 16.795 1.15693 19.8071 0.692368C22.6615 0.252691 24.487 2.5589 26.0138 4.81535C27.6651 2.85754 29.7147 0.924633 32.0381 0.26097C35.1332 -0.618383 37.1414 0.808505 38.5769 3.28065C39.4897 4.85685 39.9792 6.38327 39.9626 8.30789L39.8795 21.3406L39.7468 42.6608C39.7302 45.332 39.3403 47.8373 37.1165 49.5628C35.7058 50.6579 33.9052 51.9852 32.1212 52.541ZM37.5231 42.4119L38.054 7.38707C37.7138 5.93531 36.2617 3.92775 35.183 2.841C31.98 2.54235 28.4618 4.54163 27.1341 7.50323L27.7233 50.4754C30.4035 50.3758 32.3119 49.4467 34.2536 48.5674C36.8923 47.3728 37.4816 45.3818 37.5314 42.4119H37.5231ZM25.8479 51.2054L25.4497 8.34936C24.2216 6.76487 23.0847 4.93981 21.4916 3.96091C19.8984 2.98201 17.4339 4.43377 16.2971 5.46245L12.198 9.18725L12.6791 21.4318L13.4676 51.6451C17.8074 51.7778 21.6326 52.0516 25.8479 51.1971V51.2054ZM11.1691 50.55L10.6296 10.5892C11.2519 7.49491 8.37253 4.53331 5.60105 4.51671C4.48914 4.50842 2.78822 5.42099 2.01652 6.52433L2.63056 47.0741C4.97055 49.2559 8.0159 51.2552 11.1691 50.55Z" fill="black"/>
    <path d="M25.8479 51.2054C21.6243 52.0599 17.8073 51.7778 13.4676 51.6534L12.6791 21.4402L12.198 9.19557L16.2971 5.47077C17.4339 4.44209 19.9481 3.02351 21.4915 3.96923C23.0349 4.91495 24.2132 6.76489 25.4496 8.35768L25.8479 51.2138V51.2054Z" fill="#D1D1D1"/>
    <path d="M37.523 42.4119C37.4815 45.3818 36.8839 47.3728 34.2452 48.5674C32.3035 49.4468 30.3951 50.3759 27.7149 50.4754L27.1258 7.50325C28.4534 4.54165 31.9717 2.55066 35.1747 2.84102C36.2617 3.91947 37.7138 5.93533 38.0457 7.38709L37.5147 42.4119H37.523Z" fill="white"/>
    <path d="M11.169 50.55C8.01586 51.2552 4.97051 49.2476 2.63052 47.0741L2.01648 6.52434C2.78818 5.421 4.4891 4.50843 5.60101 4.51673C8.3642 4.54161 11.2519 7.49492 10.6296 10.5892L11.169 50.55Z" fill="white"/>
  </g>
</svg>
