<svg preserveAspectRatio="none" width="100%" height="100%" overflow="visible" style="display: block;" viewBox="0 0 27.3618 82.7308" fill="none" xmlns="http://www.w3.org/2000/svg">
<g id="Pencil">
<path id="Vector" d="M24.2291 0.577361C23.1752 0.212346 21.9968 -0.310266 20.9679 0.237256C18.3872 1.60606 16.4788 7.49605 15.8897 10.3747C15.2673 13.4192 13.9313 15.9661 13.1181 18.9359L6.72052 42.4213L3.27699 55.761C2.21487 59.8757 0.380913 63.841 0.0324032 68.2461C-0.208234 71.357 0.961909 74.3269 1.21914 77.3466C1.3768 79.18 -0.805607 82.4485 1.55928 82.7306C2.04885 82.7886 6.93639 73.1572 8.51299 71.6391L21.665 25.3154L25.2829 12.5814C26.1791 9.42899 30.021 2.59324 24.2291 0.577361ZM3.63374 76.1852C2.20651 76.6912 1.1196 67.7401 3.11938 68.86C4.03215 69.3577 4.88665 70.5109 6.46324 69.5983C8.89451 68.2046 3.52587 76.1188 3.63374 76.1852ZM8.16434 67.4414C7.5337 67.9641 6.01514 67.9474 5.20195 67.9723C4.57131 67.3419 4.04044 66.4874 2.48874 66.2717L12.0892 30.3261L15.2258 17.9322C15.5826 16.5136 16.1717 14.5309 17.0513 13.3363C18.1466 11.8347 21.2751 12.3989 22.8019 13.5686L8.16434 67.4414ZM23.6979 11.9343C21.7562 10.8807 19.9888 10.4493 18.1799 10.7895C17.8978 10.242 18.0554 9.63639 18.3375 9.62809L19.8976 9.57002C21.6983 9.51195 23.98 9.77739 23.6979 11.9343ZM24.644 8.9893C23.4657 7.24719 21.7894 6.04429 19.3914 5.8203C19.7067 4.71696 19.6071 2.86703 20.7936 2.17019C22.5362 1.14981 25.0255 2.40246 25.9549 3.92059C25.6479 5.73737 25.3161 6.84069 24.644 8.9893Z" fill="var(--fill-0, black)"/>
<path id="Vector_2" d="M23.698 11.9343C21.7563 10.8807 19.9889 10.4494 18.18 10.7895C17.8978 10.242 18.0555 9.6364 18.3376 9.6281L19.8977 9.57002C21.6983 9.51195 23.9801 9.7774 23.698 11.9343Z" fill="var(--fill-0, #C7C7C7)"/>
<path id="Vector_3" d="M25.9549 3.9206C25.6479 5.73738 25.3161 6.8407 24.644 8.98931C23.4657 7.2472 21.7895 6.0443 19.3914 5.82032C19.7067 4.71698 19.6071 2.86705 20.7937 2.1702C22.5362 1.14982 25.0256 2.40247 25.9549 3.9206Z" fill="var(--fill-0, #C7C7C7)"/>
<path id="Vector_4" d="M3.63386 76.1852C2.20663 76.6912 1.11972 67.7401 3.1195 68.86C4.03226 69.3577 4.88676 70.5109 6.46336 69.5983C8.89463 68.2046 3.52599 76.1188 3.63386 76.1852Z" fill="var(--fill-0, #C7C7C7)"/>
<path id="Vector_5" d="M17.0597 13.3363C16.1801 14.5309 15.591 16.5136 15.2342 17.9322L12.0976 30.3261L2.49708 66.2717C4.04878 66.4874 4.57966 67.3419 5.21029 67.9723C6.02348 67.9475 7.54205 67.9724 8.17268 67.4414L22.8102 13.5686C21.2834 12.3989 18.155 11.8348 17.0597 13.3363ZM19.267 18.5129L14.5207 36.2078C12.8777 42.3467 11.326 48.2533 9.52534 54.2926C8.62087 57.3371 8.30551 60.4564 6.36381 63.3433C6.397 57.7022 8.7867 52.8159 9.80734 47.4403C10.0812 46.0466 10.521 44.8354 10.8778 43.533L13.0353 35.6437L17.6488 18.1147C17.7732 17.6335 18.4454 17.2353 18.7358 17.3266C19.0097 17.4095 19.3998 18.0151 19.267 18.5129Z" fill="var(--fill-0, #C7C7C7)"/>
<path id="Vector_6" d="M19.267 18.5128L14.5207 36.2078C12.8777 42.3467 11.326 48.2532 9.52534 54.2926C8.62087 57.3371 8.30551 60.4564 6.36381 63.3433C6.397 57.7022 8.7867 52.8159 9.80734 47.4403C10.0812 46.0466 10.521 44.8354 10.8778 43.533L13.0353 35.6437L17.6488 18.1147C17.7732 17.6335 18.4454 17.2353 18.7358 17.3266C19.0097 17.4095 19.3998 18.0151 19.267 18.5128Z" fill="var(--fill-0, black)"/>
</g>
</svg>
