<svg preserveAspectRatio="none" width="100%" height="100%" overflow="visible" style="display: block;" viewBox="0 0 81.0001 93.4947" fill="none" xmlns="http://www.w3.org/2000/svg">
<g id="Capa_27_Imagen">
<path id="Vector" d="M70.1905 82.6164H17.4294C13.5573 82.6164 10.4199 79.4798 10.4199 75.6087V10.0677L61.3899 7.98198C66.1897 7.7836 70.1905 11.6226 70.1905 16.4266V82.6164Z" fill="var(--fill-0, white)"/>
<path id="Vector_2" d="M24.2727 67.7485L20.8564 67.8128L13.2463 67.9093C12.8924 67.9093 12.2113 67.4965 12.0289 67.2981C11.8144 67.0568 12.2274 66.333 12.2328 65.9952L12.3132 62.0329L12.3615 50.1568L12.5223 38.9081L12.635 36.2969L12.7637 13.9817L19.875 13.7565L42.9252 13.1292L53.0827 12.8879L63.6102 12.6037C64.2859 12.5877 64.9993 12.593 65.2889 12.9147C65.7018 13.3705 65.986 14.1693 66.0128 14.6787L66.1363 17.1772L66.4204 37.5998L66.6082 58.5157L66.7959 66.8906L57.9844 67.1426L52.5464 67.2498L37.3422 67.4911L33.7598 67.5394L32.0061 67.6198L24.2727 67.7592V67.7485Z" fill="var(--fill-0, black)"/>
<path id="Vector_3" d="M10.5272 32.8655L10.538 37.6374L10.5648 55.288L10.538 58.2101L10.5648 60.9606L10.479 70.5902C10.4683 72.0432 10.5272 73.1799 10.3824 74.7079C9.78711 74.1342 9.36885 73.6999 8.96126 73.1906L9.06313 44.5646L9.25089 11.8638C9.26161 10.3572 9.41173 9.31169 10.0124 7.78898C12.7582 7.60668 15.295 7.6442 17.998 7.52625L22.0577 7.34932L27.6245 7.22063L33.1698 7.05979L41.0856 6.82924L43.8154 6.8185L46.5988 6.58796C48.1433 6.45928 49.543 6.62013 51.0018 6.57724L60.5587 6.30379C64.2323 6.19656 63.1812 6.47 65.6535 9.06504L60.5694 9.16692L53.7745 9.37066L51.1091 9.3814L45.7515 9.56369L42.2869 9.57977L38.8976 9.64948L28.2036 9.84249L22.6691 9.94436L18.4323 9.96045L10.42 10.0784L10.4951 14.4482L10.479 18.2174L10.5165 22.689L10.5326 25.906L10.5218 32.8762L10.5272 32.8655Z" fill="var(--fill-0, black)"/>
<path id="Vector_4" d="M22.5028 82.3376L29.0027 82.1445L32.3064 82.0588L41.2733 81.8443L44.5769 81.7692L58.7084 81.5226C62.7199 81.4529 65.4282 81.5226 69.4129 81.3028L69.3218 69.8395L69.2574 65.3518L69.2199 62.9176L69.0107 37.38L68.764 18.019L68.6729 13.4562C69.2736 14.0407 70.5713 15.2417 70.5767 16.2014L70.7322 41.042L70.7859 45.0204L70.9843 75.346L71.0648 79.6353C71.0809 80.4127 70.9736 81.292 71.1666 81.9622C71.3865 82.7343 71.2899 83.3402 70.8502 83.7798C70.2549 84.375 69.4559 83.2651 68.9357 83.2812L56.2951 83.6405L48.2559 83.871L34.1834 84.1605L24.2297 84.3964C22.3741 84.4393 20.186 84.3321 18.3411 84.2302C17.7405 84.1981 16.9735 83.0614 16.8555 82.611L22.5082 82.3322L22.5028 82.3376Z" fill="var(--fill-0, black)"/>
<path id="Vector_5" d="M61.5937 2.34687C62.8808 6.83994 66.9245 20.3621 70.3515 24.9141C70.6679 25.3323 71.3114 25.268 71.5313 24.7908L71.8156 24.1796C71.9443 23.9008 72.2393 23.7399 72.5396 23.7882L74.5454 24.0777C74.9637 24.1367 75.3337 23.815 75.3337 23.3968V22.4102C75.3337 21.917 75.8379 21.5845 76.2937 21.7776L77.2054 22.1636C77.6613 22.3566 78.1654 22.0242 78.1654 21.5309V20.657C78.1654 20.1583 78.6803 19.8259 79.1361 20.0243L80.0264 20.4157C80.6538 20.6945 81.2599 19.9921 80.8845 19.4131C78.3478 15.4883 72.8721 6.56114 71.8478 1.06007C71.7352 0.464927 70.9736 0.282626 70.6143 0.770537L70.5821 0.81344C70.2764 1.23165 69.6382 1.17266 69.4076 0.7062C69.1448 0.170033 68.3726 0.202212 68.1474 0.749102L68.1313 0.797355C67.906 1.34961 67.1337 1.37641 66.8709 0.840241L66.6511 0.389864C66.4151 -0.098048 65.7394 -0.135582 65.4498 0.320159C65.1441 0.802709 64.8276 1.36568 64.7203 1.77853C64.5863 2.27717 63.4761 1.92331 62.5322 1.52118C61.9959 1.29063 61.4381 1.7839 61.5937 2.34152V2.34687Z" fill="var(--fill-0, #9E9E9E)"/>
<path id="Vector_6" d="M25.1896 87.533C22.0523 84.0694 12.4472 73.7267 7.35766 71.1585C6.89108 70.9226 6.33863 71.2657 6.34935 71.7912L6.36546 72.4667C6.37082 72.7724 6.17781 73.0458 5.88821 73.1423L3.96284 73.7643C3.56062 73.8929 3.37291 74.3487 3.55525 74.724L3.98968 75.6087C4.20957 76.0537 3.90384 76.5738 3.41044 76.6006L2.41836 76.6596C1.92497 76.6864 1.61923 77.2118 1.83912 77.6515L2.22524 78.4343C2.44512 78.8793 2.13414 79.4101 1.63539 79.4262L0.664652 79.4637C-0.0218123 79.4905 -0.252479 80.3913 0.337451 80.7398C4.34897 83.1418 13.2033 88.734 16.5552 93.211C16.9198 93.6989 17.6814 93.5274 17.7887 92.9268L17.7994 92.8786C17.8906 92.3692 18.4913 92.1387 18.8988 92.455C19.3708 92.8196 20.0519 92.455 20.009 91.8599V91.8116C19.9608 91.2165 20.6418 90.8519 21.1137 91.2165L21.5052 91.5221C21.9342 91.8545 22.5564 91.5864 22.6154 91.0503C22.6744 90.4819 22.7119 89.8385 22.6261 89.4203C22.5242 88.911 23.6827 88.7394 24.707 88.6858C25.2862 88.6536 25.5758 87.9673 25.1843 87.533H25.1896Z" fill="var(--fill-0, #9E9E9E)"/>
</g>
</svg>
