<svg preserveAspectRatio="none" width="100%" height="100%" overflow="visible" style="display: block;" viewBox="0 0 39.963 54.5079" fill="none" xmlns="http://www.w3.org/2000/svg">
<g id="Pen_holder">
<path id="Vector" d="M32.1212 52.541C22.9271 55.3782 6.23169 56.3405 0 47.0243L0.0415298 10.5561C0.0415298 8.3245 0.506299 5.81088 1.58502 4.02729C2.73842 2.11926 5.61781 1.3809 7.42674 2.07775C9.61737 2.92392 11.0777 4.12683 12.3473 5.98508C14.1977 3.72863 16.795 1.15693 19.8071 0.692368C22.6615 0.252691 24.487 2.5589 26.0138 4.81535C27.6651 2.85754 29.7147 0.924633 32.0381 0.26097C35.1332 -0.618383 37.1414 0.808505 38.5769 3.28065C39.4897 4.85685 39.9792 6.38327 39.9626 8.30789L39.8795 21.3406L39.7468 42.6608C39.7302 45.332 39.3403 47.8373 37.1165 49.5628C35.7058 50.6579 33.9052 51.9852 32.1212 52.541ZM37.5231 42.4119L38.054 7.38707C37.7138 5.93531 36.2617 3.92775 35.183 2.841C31.98 2.54235 28.4618 4.54163 27.1341 7.50323L27.7233 50.4754C30.4035 50.3758 32.3119 49.4467 34.2536 48.5674C36.8923 47.3728 37.4816 45.3818 37.5314 42.4119H37.5231ZM25.8479 51.2054L25.4497 8.34936C24.2216 6.76487 23.0847 4.93981 21.4916 3.96091C19.8984 2.98201 17.4339 4.43377 16.2971 5.46245L12.198 9.18725L12.6791 21.4318L13.4676 51.6451C17.8074 51.7778 21.6326 52.0516 25.8479 51.1971V51.2054ZM11.1691 50.55L10.6296 10.5892C11.2519 7.49491 8.37253 4.53331 5.60105 4.51671C4.48914 4.50842 2.78822 5.42099 2.01652 6.52433L2.63056 47.0741C4.97055 49.2559 8.0159 51.2552 11.1691 50.55Z" fill="var(--fill-0, black)"/>
<path id="Vector_2" d="M25.8479 51.2054C21.6243 52.0599 17.8073 51.7778 13.4676 51.6534L12.6791 21.4402L12.198 9.19557L16.2971 5.47077C17.4339 4.44209 19.9481 3.02351 21.4915 3.96923C23.0349 4.91495 24.2132 6.76489 25.4496 8.35768L25.8479 51.2138V51.2054Z" fill="var(--fill-0, #D1D1D1)"/>
<path id="Vector_3" d="M37.523 42.4119C37.4815 45.3818 36.8839 47.3728 34.2452 48.5674C32.3035 49.4468 30.3951 50.3759 27.7149 50.4754L27.1258 7.50325C28.4534 4.54165 31.9717 2.55066 35.1747 2.84102C36.2617 3.91947 37.7138 5.93533 38.0457 7.38709L37.5147 42.4119H37.523Z" fill="var(--fill-0, white)"/>
<path id="Vector_4" d="M11.169 50.55C8.01586 51.2552 4.97051 49.2476 2.63052 47.0741L2.01648 6.52434C2.78818 5.421 4.4891 4.50843 5.60101 4.51673C8.3642 4.54161 11.2519 7.49492 10.6296 10.5892L11.169 50.55Z" fill="var(--fill-0, white)"/>
</g>
</svg>
