<svg preserveAspectRatio="none" width="100%" height="100%" overflow="visible" style="display: block;" viewBox="0 0 19.8484 19.8484" fill="none" xmlns="http://www.w3.org/2000/svg">
<path id="brightness_5" d="M12.3051 18.8788C10.9928 20.1715 8.85558 20.1715 7.54328 18.8788C6.92622 18.271 6.08865 17.9242 5.22248 17.9242C3.40088 17.9242 1.92418 16.4475 1.92418 14.6259C1.92418 13.7597 1.57739 12.9221 0.969533 12.3051C-0.323178 10.9928 -0.323178 8.85558 0.969533 7.54328C1.57739 6.92622 1.92418 6.08865 1.92418 5.22248C1.92418 3.40088 3.40088 1.92418 5.22248 1.92418C6.08865 1.92418 6.92622 1.57739 7.54328 0.969533C8.85558 -0.323178 10.9928 -0.323178 12.3051 0.969533C12.9221 1.57739 13.7597 1.92418 14.6259 1.92418C16.4475 1.92418 17.9242 3.40088 17.9242 5.22248C17.9242 6.08865 18.271 6.92622 18.8788 7.54328C20.1715 8.85558 20.1715 10.9928 18.8788 12.3051C18.271 12.9221 17.9242 13.7597 17.9242 14.6259C17.9242 16.4475 16.4475 17.9242 14.6259 17.9242C13.7597 17.9242 12.9221 18.271 12.3051 18.8788ZM13.4617 13.4617C14.4367 12.4867 14.9242 11.3075 14.9242 9.92418C14.9242 8.54084 14.4367 7.36168 13.4617 6.38668C12.4867 5.41168 11.3075 4.92418 9.92418 4.92418C8.54084 4.92418 7.36168 5.41168 6.38668 6.38668C5.41168 7.36168 4.92418 8.54084 4.92418 9.92418C4.92418 11.3075 5.41168 12.4867 6.38668 13.4617C7.36168 14.4367 8.54084 14.9242 9.92418 14.9242C11.3075 14.9242 12.4867 14.4367 13.4617 13.4617ZM7.79918 12.0492C7.21584 11.4658 6.92418 10.7575 6.92418 9.92418C6.92418 9.09084 7.21584 8.38251 7.79918 7.79918C8.38251 7.21584 9.09084 6.92418 9.92418 6.92418C10.7575 6.92418 11.4658 7.21584 12.0492 7.79918C12.6325 8.38251 12.9242 9.09084 12.9242 9.92418C12.9242 10.7575 12.6325 11.4658 12.0492 12.0492C11.4658 12.6325 10.7575 12.9242 9.92418 12.9242C9.09084 12.9242 8.38251 12.6325 7.79918 12.0492ZM8.15119 16.6512C9.1275 17.6275 10.7209 17.6275 11.6972 16.6512C12.1613 16.1871 12.7929 15.9242 13.4493 15.9242C14.8161 15.9242 15.9242 14.8161 15.9242 13.4493C15.9242 12.7929 16.1871 12.1613 16.6512 11.6972C17.6275 10.7209 17.6275 9.1275 16.6512 8.15119C16.1871 7.68706 15.9242 7.05543 15.9242 6.39905C15.9242 5.03221 14.8161 3.92418 13.4493 3.92418C12.7929 3.92418 12.1613 3.66129 11.6972 3.19716C10.7209 2.22085 9.1275 2.22085 8.15119 3.19716C7.68706 3.66129 7.05543 3.92418 6.39905 3.92418C5.03221 3.92418 3.92418 5.03221 3.92418 6.39905C3.92418 7.05543 3.66129 7.68706 3.19716 8.15119C2.22085 9.1275 2.22085 10.7209 3.19716 11.6972C3.66129 12.1613 3.92418 12.7929 3.92418 13.4493C3.92418 14.8161 5.03221 15.9242 6.39905 15.9242C7.05543 15.9242 7.68706 16.1871 8.15119 16.6512Z" fill="var(--fill-0, #DBDBDB)"/>
</svg>
