<svg width="18" height="74" viewBox="0 0 18 74" fill="none" xmlns="http://www.w3.org/2000/svg">
<path d="M11.4511 58.1162L8.91189 69.7386L7.55113 70.2197C6.99517 70.4189 7.59259 74.517 6.07408 73.8284C4.87919 73.2892 5.02025 71.2982 5.44344 69.9791L3.37728 69.133L1.70941 60.4722C1.22813 57.9835 0.730251 55.5528 0.663869 52.9479L0.116081 30.6737L0 12.7299C0 13.6341 1.41068 5.97717 1.91685 5.9274C1.95004 4.03596 1.21985 1.34808 3.59303 0.236447C4.97878 -0.41892 7.75858 0.360927 8.59666 1.67996L8.72936 6.4915C11.8742 10.7555 9.6836 10.8634 10.7955 14.7292C13.5836 14.0241 15.2764 15.5007 16.0647 17.8069C18.886 26.0446 15.6497 30.1096 12.7703 37.609L15.6912 37.9242C15.8903 38.6045 15.6663 40.1558 15.127 41.1098C14.5876 42.0638 13.2599 42.0639 11.5921 41.7569L11.6253 48.1032L11.7084 54.4992C11.725 55.6192 11.7415 56.8386 11.4594 58.1162H11.4511ZM8.28124 9.4365C8.25635 5.84442 3.71749 7.42892 2.95408 7.61972C2.59728 7.71097 2.71349 8.88895 2.78817 9.41159L8.28124 9.42819V9.4365ZM11.6668 35.9416C15.2017 28.1601 17.1682 27.0899 14.4548 18.678C12.148 24.3523 14.3138 26.2603 11.4511 31.3042C11.1607 32.7311 10.9781 34.1497 11.6668 35.9333V35.9416ZM7.6506 67.5568L8.73766 60.8372L3.29422 60.8787L4.92057 67.0258C5.05334 67.5402 5.6509 68.2536 6.08239 68.4444C6.4226 68.6021 7.58421 67.9965 7.6506 67.5485V67.5568Z" fill="black"/>
<path d="M11.6667 35.9416C10.978 34.1497 11.1605 32.7394 11.4509 31.3125C14.3137 26.2687 12.1562 24.3524 14.4547 18.6863C17.1681 27.0983 15.1933 28.1684 11.6667 35.9499V35.9416Z" fill="white"/>
<path d="M7.65056 67.5568C7.57588 67.9965 6.42257 68.6104 6.08236 68.4527C5.65917 68.2536 5.0616 67.5402 4.92054 67.0341L3.29419 60.887L8.73763 60.8455L7.65056 67.5651V67.5568Z" fill="white"/>
<path d="M8.28121 9.43648L2.78814 9.41987C2.71346 8.88894 2.59725 7.71096 2.95406 7.62801C3.72576 7.4372 8.26462 5.85271 8.28121 9.44479V9.43648Z" fill="white"/>
</svg>
