<svg width="212" height="212" viewBox="0 0 212 212" fill="none" xmlns="http://www.w3.org/2000/svg">
<path d="M106 147.892C109.458 154.407 114.209 160.878 120.143 166.812C125.279 171.948 130.818 176.199 136.44 179.492C131.451 198.588 119.702 212 106 212C92.2981 212 80.5479 198.588 75.5586 179.492C81.1809 176.199 86.7213 171.949 91.8584 166.812C97.7919 160.878 102.542 154.406 106 147.892ZM136.44 32.5068C153.471 22.5319 171.264 21.3581 180.953 31.0469C190.642 40.7356 189.467 58.528 179.492 75.5586C173.188 73.9115 166.265 73 159 73C150.609 73 142.673 74.2162 135.621 76.3779C132.64 86.1018 127.859 94.1428 121.975 99.3818C115.647 99.7489 110.098 101.902 106 106C101.902 110.098 99.7489 115.647 99.3818 121.975C94.1428 127.859 86.1018 132.64 76.3779 135.621C74.2162 142.673 73 150.609 73 159C73 166.265 73.9115 173.188 75.5586 179.492C58.528 189.467 40.7356 190.642 31.0469 180.953C21.3581 171.264 22.532 153.471 32.5068 136.44C38.8112 138.088 45.7346 139 53 139C61.3912 139 69.3261 137.783 76.3779 135.621C79.3586 125.898 84.1405 117.856 90.0244 112.617C96.3523 112.25 101.901 110.099 106 106C110.099 101.901 112.25 96.3523 112.617 90.0244C117.856 84.1405 125.898 79.3586 135.621 76.3779C137.783 69.3261 139 61.3912 139 53C139 45.7346 138.088 38.8112 136.44 32.5068ZM121.975 99.3818C129.84 98.9256 138.908 101.232 147.892 106C138.908 110.768 129.84 113.073 121.975 112.617C127.859 117.856 132.64 125.897 135.621 135.621C142.673 137.783 150.608 139 159 139C166.265 139 173.188 138.088 179.492 136.44C189.467 153.471 190.642 171.264 180.953 180.953C171.264 190.642 153.471 189.467 136.44 179.492C138.088 173.188 139 166.265 139 159C139 150.608 137.783 142.673 135.621 135.621C125.897 132.64 117.856 127.859 112.617 121.975C113.073 129.84 110.768 138.908 106 147.892C101.232 138.908 98.9256 129.84 99.3818 121.975C103.597 117.241 106 111.796 106 106C106 111.796 108.402 117.241 112.617 121.975C112.25 115.647 110.098 110.098 106 106C110.098 110.098 115.647 112.25 121.975 112.617C117.241 108.402 111.796 106 106 106C111.796 106 117.241 103.597 121.975 99.3818ZM32.5068 75.5586C35.7997 81.1809 40.0514 86.7203 45.1885 91.8574C51.1218 97.7907 57.5928 102.542 64.1074 106C57.5928 109.458 51.1217 114.209 45.1885 120.143C40.0517 125.279 35.7997 130.818 32.5068 136.44C13.4118 131.451 2.42477e-06 119.702 0 106C5.98922e-07 92.2983 13.4117 80.548 32.5068 75.5586ZM179.492 75.5586C198.588 80.5479 212 92.2981 212 106C212 119.702 198.588 131.451 179.492 136.44C176.199 130.818 171.948 125.279 166.812 120.143C160.878 114.209 154.407 109.458 147.892 106C154.407 102.542 160.878 97.791 166.812 91.8574C171.948 86.7205 176.199 81.1808 179.492 75.5586ZM31.0469 31.0469C40.7356 21.3582 58.5281 22.5323 75.5586 32.5068C73.9113 38.8112 73 45.7347 73 53C73 61.3911 74.2164 69.3262 76.3779 76.3779C86.1016 79.3585 94.1427 84.1406 99.3818 90.0244C98.9258 82.159 101.232 73.091 106 64.1074C110.768 73.0911 113.073 82.159 112.617 90.0244C108.402 94.7584 106 100.204 106 106C106 100.204 103.597 94.7585 99.3818 90.0244C99.7482 96.3433 101.895 101.886 105.982 105.982C101.886 101.895 96.3433 99.7482 90.0244 99.3818C94.7585 103.597 100.204 106 106 106C100.204 106 94.7584 108.402 90.0244 112.617C82.159 113.073 73.0911 110.768 64.1074 106C73.091 101.232 82.159 98.9258 90.0244 99.3818C84.1406 94.1427 79.3585 86.1016 76.3779 76.3779C69.3262 74.2164 61.3911 73 53 73C45.7347 73 38.8112 73.9113 32.5068 75.5586C22.5323 58.5281 21.3582 40.7355 31.0469 31.0469ZM106 0C119.702 0 131.451 13.4118 136.44 32.5068C130.818 35.7997 125.279 40.0517 120.143 45.1885C114.209 51.1218 109.458 57.5928 106 64.1074C102.542 57.5928 97.7907 51.1218 91.8574 45.1885C86.7203 40.0515 81.1809 35.7997 75.5586 32.5068C80.548 13.4117 92.2983 0 106 0Z" fill="black"/>
</svg>
